Newsreader-CaptionRegular.ufo
<glyph name="exclam" format="2">
  <advance width="650.0"/>
  <unicode hex="0021"/>
  <guideline x="482.0" y="435" angle="0" identifier="qioneAwGnd"/>
  <outline>
    <contour>
      <point x="446.0" y="1384.0" type="line" smooth="yes"/>
      <point x="446.0" y="1416.0"/>
      <point x="421.0" y="1433.0"/>
      <point x="325.0" y="1433.0" type="curve" smooth="yes"/>
      <point x="229.0" y="1433.0"/>
      <point x="204.0" y="1416.0"/>
      <point x="204.0" y="1384.0" type="curve" smooth="yes"/>
      <point x="204.0" y="1311.0" type="line" smooth="yes"/>
      <point x="204.0" y="1272.0"/>
      <point x="252.0" y="537.0"/>
      <point x="263.0" y="435.0" type="curve"/>
      <point x="387.0" y="435.0" type="line"/>
      <point x="397.0" y="537.0"/>
      <point x="446.0" y="1272.0"/>
      <point x="446.0" y="1311.0" type="curve" smooth="yes"/>
    </contour>
    <contour>
      <point x="325.0" y="294.0" type="curve" smooth="yes"/>
      <point x="230.0" y="294.0"/>
      <point x="168.0" y="240.0"/>
      <point x="168.0" y="140.0" type="curve" smooth="yes"/>
      <point x="168.0" y="40.0"/>
      <point x="230.0" y="-14.0"/>
      <point x="325.0" y="-14.0" type="curve" smooth="yes"/>
      <point x="420.0" y="-14.0"/>
      <point x="482.0" y="40.0"/>
      <point x="482.0" y="140.0" type="curve" smooth="yes"/>
      <point x="482.0" y="240.0"/>
      <point x="420.0" y="294.0"/>
    </contour>
  </outline>
</glyph>
<glyph name="ampersand" format="2">
  <advance width="1654"/>
  <unicode hex="0026"/>
  <outline>
    <contour>
      <point x="689" y="767" type="line"/>
      <point x="986" y="862"/>
      <point x="1084" y="983"/>
      <point x="1084" y="1164" type="curve" smooth="yes"/>
      <point x="1084" y="1318"/>
      <point x="970" y="1434"/>
      <point x="708" y="1434" type="curve" smooth="yes"/>
      <point x="426" y="1434"/>
      <point x="302" y="1298"/>
      <point x="302" y="1124" type="curve" smooth="yes"/>
      <point x="302" y="997"/>
      <point x="335" y="904"/>
      <point x="480" y="754" type="curve" smooth="yes"/>
      <point x="1207" y="0" type="line"/>
      <point x="1567" y="0" type="line"/>
      <point x="1567" y="104" type="line"/>
      <point x="1353" y="145" type="line"/>
      <point x="664" y="857" type="line" smooth="yes"/>
      <point x="534" y="991"/>
      <point x="502" y="1063"/>
      <point x="502" y="1151" type="curve" smooth="yes"/>
      <point x="502" y="1250"/>
      <point x="577" y="1303"/>
      <point x="709" y="1303" type="curve" smooth="yes"/>
      <point x="841" y="1303"/>
      <point x="905" y="1245"/>
      <point x="905" y="1147" type="curve" smooth="yes"/>
      <point x="905" y="1024"/>
      <point x="832" y="941"/>
      <point x="656" y="860" type="curve"/>
      <point x="524" y="811" type="line"/>
      <point x="249" y="719"/>
      <point x="132" y="569"/>
      <point x="132" y="356" type="curve" smooth="yes"/>
      <point x="132" y="122"/>
      <point x="261" y="-20"/>
      <point x="630" y="-20" type="curve" smooth="yes"/>
      <point x="841" y="-20"/>
      <point x="995" y="36"/>
      <point x="1131" y="182" type="curve"/>
      <point x="1175" y="229" type="line"/>
      <point x="1267" y="345"/>
      <point x="1351" y="507"/>
      <point x="1436" y="726" type="curve"/>
      <point x="1583" y="760" type="line"/>
      <point x="1583" y="864" type="line"/>
      <point x="1096" y="864" type="line"/>
      <point x="1096" y="760" type="line"/>
      <point x="1246" y="726" type="line"/>
      <point x="1206" y="543"/>
      <point x="1147" y="413"/>
      <point x="1077" y="323" type="curve"/>
      <point x="1031" y="273" type="line"/>
      <point x="933" y="175"/>
      <point x="819" y="128.0"/>
      <point x="673" y="128" type="curve" smooth="yes"/>
      <point x="433" y="128"/>
      <point x="340" y="234"/>
      <point x="340" y="410" type="curve" smooth="yes"/>
      <point x="340" y="537"/>
      <point x="389" y="635"/>
      <point x="550" y="711" type="curve"/>
    </contour>
  </outline>
</glyph>
<glyph name="quotesingle" format="2">
  <advance width="484.0"/>
  <unicode hex="0027"/>
  <outline>
    <contour>
      <point x="168.0" y="897.0" type="line"/>
      <point x="316.0" y="897.0" type="line"/>
      <point x="353.0" y="1374.0" type="line"/>
      <point x="353.0" y="1414.0" type="line"/>
      <point x="131.0" y="1414.0" type="line"/>
      <point x="131.0" y="1374.0" type="line"/>
    </contour>
  </outline>
</glyph>
<glyph name="hyphen" format="2">
  <advance width="817.0"/>
  <unicode hex="002D"/>
  <outline>
    <contour>
      <point x="151.0" y="607.0" type="line"/>
      <point x="151.0" y="437.0" type="line"/>
      <point x="666.0" y="437.0" type="line"/>
      <point x="666.0" y="607.0" type="line"/>
    </contour>
  </outline>
</glyph>
<glyph name="slash" format="2">
  <advance width="891"/>
  <unicode hex="002F"/>
  <outline>
    <contour>
      <point x="62.0" y="0.0" type="line"/>
      <point x="241.0" y="0.0" type="line"/>
      <point x="832.0" y="1414.0" type="line"/>
      <point x="652.0" y="1414.0" type="line"/>
    </contour>
  </outline>
</glyph>
<glyph name="semicolon" format="2">
  <advance width="628.0"/>
  <unicode hex="003B"/>
  <outline>
    <contour>
      <point x="97.0" y="-284.0" type="curve"/>
      <point x="152.0" y="-354.0" type="line"/>
      <point x="395.0" y="-175.0"/>
      <point x="471.0" y="-36.0"/>
      <point x="471.0" y="125.0" type="curve" smooth="yes"/>
      <point x="471.0" y="243.0"/>
      <point x="416.0" y="294.0"/>
      <point x="311.0" y="294.0" type="curve" smooth="yes"/>
      <point x="213.0" y="294.0"/>
      <point x="159.0" y="238.0"/>
      <point x="159.0" y="147.0" type="curve" smooth="yes"/>
      <point x="159.0" y="105.0"/>
      <point x="282.0" y="63.0"/>
      <point x="282.0" y="-31.0" type="curve" smooth="yes"/>
      <point x="282.0" y="-108.0"/>
      <point x="239.0" y="-176.0"/>
    </contour>
    <contour>
      <point x="314.0" y="1038.0" type="curve" smooth="yes"/>
      <point x="219.0" y="1038.0"/>
      <point x="157.0" y="984.0"/>
      <point x="157.0" y="884.0" type="curve" smooth="yes"/>
      <point x="157.0" y="784.0"/>
      <point x="219.0" y="730.0"/>
      <point x="314.0" y="730.0" type="curve" smooth="yes"/>
      <point x="409.0" y="730.0"/>
      <point x="471.0" y="784.0"/>
      <point x="471.0" y="884.0" type="curve" smooth="yes"/>
      <point x="471.0" y="984.0"/>
      <point x="409.0" y="1038.0"/>
    </contour>
  </outline>
</glyph>
<glyph name="A" format="2">
  <advance width="1649.0"/>
  <unicode hex="0041"/>
  <anchor x="813.0" y="1414.0" name="UCtop"/>
  <anchor x="791.0" y="0" name="bottom"/>
  <anchor x="1482.0" y="0" name="right"/>
  <outline>
    <contour>
      <point x="442.0" y="469.0" type="line"/>
      <point x="1160.0" y="469.0" type="line"/>
      <point x="1160.0" y="625.0" type="line"/>
      <point x="442.0" y="625.0" type="line"/>
    </contour>
    <contour>
      <point x="1456.0" y="151.0" type="line"/>
      <point x="938.0" y="1434.0" type="line"/>
      <point x="675.0" y="1434.0" type="line"/>
      <point x="192.0" y="151.0" type="line"/>
      <point x="24.0" y="106.0" type="line"/>
      <point x="24.0" y="0.0" type="line"/>
      <point x="559.0" y="0.0" type="line"/>
      <point x="559.0" y="106.0" type="line"/>
      <point x="373.0" y="151.0" type="line"/>
      <point x="793.0" y="1336.0" type="line"/>
      <point x="744.0" y="1336.0" type="line"/>
      <point x="1212.0" y="151.0" type="line"/>
      <point x="1026.0" y="106.0" type="line"/>
      <point x="1026.0" y="0.0" type="line"/>
      <point x="1642.0" y="0.0" type="line"/>
      <point x="1642.0" y="106.0" type="line"/>
    </contour>
  </outline>
</glyph>
<glyph name="J" format="2">
  <advance width="1128.0"/>
  <unicode hex="004A"/>
  <anchor x="738.0" y="1414.0" name="UCtop"/>
  <anchor x="470.0" y="0" name="bottom"/>
  <outline>
    <contour>
      <point x="847.0" y="387.0" type="curve" smooth="yes"/>
      <point x="847.0" y="1263.0" type="line"/>
      <point x="1043.0" y="1308.0" type="line"/>
      <point x="1043.0" y="1414.0" type="line"/>
      <point x="433.0" y="1414.0" type="line"/>
      <point x="433.0" y="1308.0" type="line"/>
      <point x="629.0" y="1263.0" type="line"/>
      <point x="629.0" y="370.0" type="line" smooth="yes"/>
      <point x="629.0" y="205.0"/>
      <point x="550.0" y="146.0"/>
      <point x="395.0" y="146.0" type="curve" smooth="yes"/>
      <point x="232.0" y="146.0"/>
      <point x="189.0" y="273.0"/>
      <point x="145.0" y="273.0" type="curve" smooth="yes"/>
      <point x="77.0" y="273.0"/>
      <point x="36.0" y="225.0"/>
      <point x="36.0" y="154.0" type="curve" smooth="yes"/>
      <point x="36.0" y="59.0"/>
      <point x="109.0" y="-16.0"/>
      <point x="365.0" y="-16.0" type="curve" smooth="yes"/>
      <point x="712.0" y="-16.0"/>
      <point x="847.0" y="135.0"/>
    </contour>
  </outline>
</glyph>
<glyph name="L" format="2">
  <advance width="1388.0"/>
  <unicode hex="004C"/>
  <anchor x="415.0" y="1414.0" name="UCtop"/>
  <anchor x="798.0" y="1414.0" name="right"/>
  <anchor x="689.0" y="0" name="bottom"/>
  <anchor x="1102.0" y="772" name="mid"/>
  <outline>
    <contour>
      <point x="1247.0" y="-72.0" type="line"/>
      <point x="1328.0" y="492.0" type="line"/>
      <point x="1194.0" y="492.0" type="line"/>
      <point x="1031.0" y="72.0" type="line"/>
      <point x="1106.0" y="156.0" type="line"/>
      <point x="399.0" y="156.0" type="line"/>
      <point x="399.0" y="0.0" type="line"/>
      <point x="1078.0" y="0.0" type="line"/>
      <point x="1120.0" y="-72.0" type="line"/>
    </contour>
    <contour>
      <point x="524.0" y="1263.0" type="line"/>
      <point x="720.0" y="1308.0" type="line"/>
      <point x="720.0" y="1414.0" type="line"/>
      <point x="110.0" y="1414.0" type="line"/>
      <point x="110.0" y="1308.0" type="line"/>
      <point x="306.0" y="1263.0" type="line"/>
      <point x="306.0" y="151.0" type="line"/>
      <point x="110.0" y="106.0" type="line"/>
      <point x="110.0" y="0.0" type="line"/>
      <point x="524.0" y="0.0" type="line"/>
    </contour>
  </outline>
</glyph>
<glyph name="M" format="2">
  <advance width="2196"/>
  <unicode hex="004D"/>
  <anchor x="1112.0" y="1414.0" name="UCtop"/>
  <anchor x="1082.0" y="0" name="bottom"/>
  <outline>
    <contour>
      <point x="1921.0" y="151.0" type="line"/>
      <point x="1845.0" y="1253.0" type="line"/>
      <point x="2039.0" y="1308.0" type="line"/>
      <point x="2039.0" y="1414.0" type="line"/>
      <point x="1529.0" y="1414.0" type="line"/>
      <point x="1091.0" y="148.0" type="line"/>
      <point x="1110.0" y="148.0" type="line"/>
      <point x="674.0" y="1414.0" type="line"/>
      <point x="146.0" y="1414.0" type="line"/>
      <point x="146.0" y="1308.0" type="line"/>
      <point x="348.0" y="1248.0" type="line"/>
      <point x="266.0" y="151.0" type="line"/>
      <point x="98.0" y="106.0" type="line"/>
      <point x="98.0" y="0.0" type="line"/>
      <point x="616.0" y="0.0" type="line"/>
      <point x="616.0" y="106.0" type="line"/>
      <point x="430.0" y="151.0" type="line"/>
      <point x="509.0" y="1259.0" type="line"/>
      <point x="497.0" y="1257.0" type="line"/>
      <point x="939.0" y="0.0" type="line"/>
      <point x="1184.0" y="0.0" type="line"/>
      <point x="1638.0" y="1266.0" type="line"/>
      <point x="1626.0" y="1268.0" type="line"/>
      <point x="1704.0" y="151.0" type="line"/>
      <point x="1518.0" y="106.0" type="line"/>
      <point x="1518.0" y="0.0" type="line"/>
      <point x="2107.0" y="0.0" type="line"/>
      <point x="2107.0" y="106.0" type="line"/>
    </contour>
  </outline>
</glyph>
<glyph name="W" format="2">
  <advance width="2243.0"/>
  <unicode hex="0057"/>
  <anchor x="1139.0" y="1414.0" name="UCtop"/>
  <anchor x="1149.0" y="0" name="bottom"/>
  <outline>
    <contour>
      <point x="1139.0" y="1211.0" type="line"/>
      <point x="1123.0" y="1211.0" type="line"/>
      <point x="1493.0" y="0.0" type="line"/>
      <point x="1776.0" y="0.0" type="line"/>
      <point x="2048.0" y="1263.0" type="line"/>
      <point x="2216.0" y="1308.0" type="line"/>
      <point x="2216.0" y="1414.0" type="line"/>
      <point x="1691.0" y="1414.0" type="line"/>
      <point x="1691.0" y="1308.0" type="line"/>
      <point x="1877.0" y="1263.0" type="line"/>
      <point x="1640.0" y="65.0" type="line"/>
      <point x="1704.0" y="65.0" type="line"/>
      <point x="1294.0" y="1414.0" type="line"/>
      <point x="1030.0" y="1414.0" type="line"/>
      <point x="637.0" y="98.0" type="line"/>
      <point x="677.0" y="98.0" type="line"/>
      <point x="448.0" y="1263.0" type="line"/>
      <point x="634.0" y="1308.0" type="line"/>
      <point x="634.0" y="1414.0" type="line"/>
      <point x="22.0" y="1414.0" type="line"/>
      <point x="22.0" y="1308.0" type="line"/>
      <point x="207.0" y="1263.0" type="line"/>
      <point x="464.0" y="0.0" type="line"/>
      <point x="761.0" y="0.0" type="line"/>
    </contour>
  </outline>
</glyph>
<glyph name="Z" format="2">
  <advance width="1389.0"/>
  <unicode hex="005A"/>
  <anchor x="711.0" y="1414.0" name="UCtop"/>
  <anchor x="671.0" y="0" name="bottom"/>
  <outline>
    <contour>
      <point x="1235.0" y="1414.0" type="line"/>
      <point x="323.0" y="1414.0" type="line"/>
      <point x="246.0" y="1484.0" type="line"/>
      <point x="135.0" y="1484.0" type="line"/>
      <point x="135.0" y="1002.0" type="line"/>
      <point x="275.0" y="1002.0" type="line"/>
      <point x="333.0" y="1258.0" type="line"/>
      <point x="1047.0" y="1258.0" type="line"/>
      <point x="987.0" y="1280.0" type="line"/>
      <point x="125.0" y="136.0" type="line"/>
      <point x="125.0" y="0.0" type="line"/>
      <point x="1053.0" y="0.0" type="line"/>
      <point x="1095.0" y="-72.0" type="line"/>
      <point x="1222.0" y="-72.0" type="line"/>
      <point x="1298.0" y="432.0" type="line"/>
      <point x="1164.0" y="432.0" type="line"/>
      <point x="1048.0" y="156.0" type="line"/>
      <point x="313.0" y="156.0" type="line"/>
      <point x="374.0" y="133.0" type="line"/>
      <point x="1235.0" y="1278.0" type="line"/>
    </contour>
  </outline>
</glyph>
<glyph name="backslash" format="2">
  <advance width="891.0"/>
  <unicode hex="005C"/>
  <outline>
    <contour>
      <point x="829.0" y="0.0" type="line"/>
      <point x="239.0" y="1414.0" type="line"/>
      <point x="59.0" y="1414.0" type="line"/>
      <point x="650.0" y="0.0" type="line"/>
    </contour>
  </outline>
</glyph>
<glyph name="f" format="2">
  <advance width="899.0"/>
  <unicode hex="0066"/>
  <anchor x="671.0" y="1464.0" name="UCtop"/>
  <anchor x="364.0" y="0" name="bottom"/>
  <outline>
    <contour>
      <point x="312.0" y="869.0" type="line"/>
      <point x="851.0" y="869.0" type="line"/>
      <point x="851.0" y="1024.0" type="line"/>
      <point x="312.0" y="1024.0" type="line"/>
      <point x="281.0" y="1048.0" type="line"/>
      <point x="71.0" y="975.0" type="line"/>
      <point x="71.0" y="911.0" type="line"/>
      <point x="265.0" y="845.0" type="line"/>
    </contour>
    <contour>
      <point x="463.0" y="136.0" type="line"/>
      <point x="463.0" y="1153.0" type="line" smooth="yes"/>
      <point x="463.0" y="1282.0"/>
      <point x="536.0" y="1351.0"/>
      <point x="704.0" y="1351.0" type="curve" smooth="yes"/>
      <point x="865.0" y="1351.0"/>
      <point x="912.0" y="1204.0"/>
      <point x="947.0" y="1204.0" type="curve" smooth="yes"/>
      <point x="1021.0" y="1204.0"/>
      <point x="1073.0" y="1249.0"/>
      <point x="1073.0" y="1324.0" type="curve" smooth="yes"/>
      <point x="1073.0" y="1418.0"/>
      <point x="992.0" y="1484.0"/>
      <point x="736.0" y="1484.0" type="curve" smooth="yes"/>
      <point x="446.0" y="1484.0"/>
      <point x="265.0" y="1346.0"/>
      <point x="265.0" y="1093.0" type="curve" smooth="yes"/>
      <point x="265.0" y="136.0" type="line"/>
      <point x="98.0" y="96.0" type="line"/>
      <point x="98.0" y="0.0" type="line"/>
      <point x="651.0" y="0.0" type="line"/>
      <point x="651.0" y="96.0" type="line"/>
    </contour>
  </outline>
</glyph>
<glyph name="l" format="2">
  <advance width="662.0"/>
  <unicode hex="006C"/>
  <anchor x="311.0" y="1464.0" name="UCtop"/>
  <anchor x="433.0" y="1464.0" name="right"/>
  <anchor x="334.0" y="0" name="bottom"/>
  <anchor x="701.0" y="512" name="mid"/>
  <outline>
    <contour>
      <point x="433.0" y="136.0" type="line"/>
      <point x="433.0" y="1278.0" type="line"/>
      <point x="453.0" y="1484.0" type="line"/>
      <point x="411.0" y="1484.0" type="line"/>
      <point x="17.0" y="1414.0" type="line"/>
      <point x="17.0" y="1335.0" type="line"/>
      <point x="95.0" y="1307.091743119266"/>
      <point x="209.0" y="1266.302752293578"/>
      <point x="235.0" y="1257.0" type="curve"/>
      <point x="235.0" y="136.0" type="line"/>
      <point x="68.0" y="96.0" type="line"/>
      <point x="68.0" y="0.0" type="line"/>
      <point x="591.0" y="0.0" type="line"/>
      <point x="591.0" y="96.0" type="line"/>
    </contour>
  </outline>
</glyph>
<glyph name="q" format="2">
  <advance width="1315"/>
  <unicode hex="0071"/>
  <anchor x="653.0" y="1024.0" name="top"/>
  <anchor x="1031.0" y="-445" name="bottom"/>
  <outline>
    <contour>
      <point x="318.0" y="514.0" type="curve" smooth="yes"/>
      <point x="318.0" y="760.0"/>
      <point x="440.0" y="906.0"/>
      <point x="666.0" y="906.0" type="curve" smooth="yes"/>
      <point x="864.0" y="906.0"/>
      <point x="932.0" y="817.0"/>
      <point x="932.0" y="668.0" type="curve" smooth="yes"/>
      <point x="932.0" y="-311.0" type="line"/>
      <point x="741.0" y="-349.0" type="line"/>
      <point x="741.0" y="-445.0" type="line"/>
      <point x="1302.0" y="-445.0" type="line"/>
      <point x="1302.0" y="-349.0" type="line"/>
      <point x="1130.0" y="-309.0" type="line"/>
      <point x="1130.0" y="798.0" type="line"/>
      <point x="1176.0" y="1023.0" type="line"/>
      <point x="1128.0" y="1044.0" type="line"/>
      <point x="932.0" y="891.0" type="line"/>
      <point x="1027.0" y="884.0" type="line"/>
      <point x="941.0" y="1005.0"/>
      <point x="820.0" y="1044.0"/>
      <point x="675.0" y="1044.0" type="curve" smooth="yes"/>
      <point x="347.0" y="1044.0"/>
      <point x="103.0" y="822.0"/>
      <point x="103.0" y="472.0" type="curve" smooth="yes"/>
      <point x="103.0" y="167.0"/>
      <point x="259.0" y="-20.0"/>
      <point x="565.0" y="-20.0" type="curve" smooth="yes"/>
      <point x="645.0" y="-20.0"/>
      <point x="722.0" y="3.0"/>
      <point x="1020.0" y="220.0" type="curve"/>
      <point x="1020.0" y="254.0" type="line"/>
      <point x="892.0" y="189.0"/>
      <point x="776.0" y="159.0"/>
      <point x="660.0" y="159.0" type="curve" smooth="yes"/>
      <point x="436.0" y="159.0"/>
      <point x="318.0" y="271.0"/>
    </contour>
  </outline>
</glyph>
<glyph name="u" format="2">
  <advance width="1324.0"/>
  <unicode hex="0075"/>
  <anchor x="613.0" y="1024.0" name="top"/>
  <anchor x="1136.0" y="0" name="right"/>
  <anchor x="656.0" y="0" name="bottom"/>
  <anchor x="1026.0" y="1024.0" name="horn"/>
  <outline>
    <contour>
      <point x="418.0" y="354.0" type="curve" smooth="yes"/>
      <point x="418.0" y="878.0" type="line"/>
      <point x="440.0" y="1034.0" type="line"/>
      <point x="36.0" y="1024.0" type="line"/>
      <point x="36.0" y="927.0" type="line"/>
      <point x="220.0" y="859.0" type="line"/>
      <point x="220.0" y="289.0" type="line" smooth="yes"/>
      <point x="220.0" y="85.0"/>
      <point x="316.0" y="-20.0"/>
      <point x="532.0" y="-20.0" type="curve" smooth="yes"/>
      <point x="651.0" y="-20.0"/>
      <point x="682.0" y="-8.0"/>
      <point x="918.0" y="172.0" type="curve"/>
      <point x="903.0" y="218.0" type="line"/>
      <point x="826.0" y="192.0"/>
      <point x="727.0" y="173.0"/>
      <point x="639.0" y="173.0" type="curve" smooth="yes"/>
      <point x="478.0" y="173.0"/>
      <point x="418.0" y="225.0"/>
    </contour>
    <contour>
      <point x="969.0" y="-20.0" type="line"/>
      <point x="1007.0" y="-20.0" type="line"/>
      <point x="1276.0" y="106.0" type="line"/>
      <point x="1276.0" y="148.0" type="line"/>
      <point x="1234.0" y="168.77173913043478"/>
      <point x="1116.0" y="227.1304347826087"/>
      <point x="1092.0" y="239.0" type="curve"/>
      <point x="1092.0" y="878.0" type="line"/>
      <point x="1112.0" y="1034.0" type="line"/>
      <point x="718.0" y="1024.0" type="line"/>
      <point x="718.0" y="927.0" type="line"/>
      <point x="894.0" y="859.0" type="line"/>
      <point x="894.0" y="159.0" type="line"/>
    </contour>
  </outline>
</glyph>
<glyph name="y" format="2">
  <advance width="1294.0"/>
  <unicode hex="0079"/>
  <guideline x="413.0" y="888" angle="185.9805088197242" identifier="H4SgFV8GXg"/>
  <anchor x="671.0" y="1024.0" name="top"/>
  <anchor x="901.0" y="-128" name="bottom"/>
  <outline>
    <contour>
      <point x="778.0" y="137.0" type="line"/>
      <point x="413.0" y="888.0" type="line"/>
      <point x="573.0" y="933.0" type="line"/>
      <point x="573.0" y="1024.0" type="line"/>
      <point x="31.0" y="1024.0" type="line"/>
      <point x="31.0" y="933.0" type="line"/>
      <point x="186.0" y="880.0" type="line"/>
      <point x="631.0" y="-20.0" type="line"/>
    </contour>
    <contour>
      <point x="306.0" y="-465.0" type="curve" smooth="yes"/>
      <point x="481.0" y="-465.0"/>
      <point x="573.0" y="-381.0"/>
      <point x="659.0" y="-183.0" type="curve" smooth="yes"/>
      <point x="1126.0" y="897.0" type="line"/>
      <point x="1251.0" y="933.0" type="line"/>
      <point x="1251.0" y="1024.0" type="line"/>
      <point x="816.0" y="1024.0" type="line"/>
      <point x="816.0" y="933.0" type="line"/>
      <point x="969.0" y="892.0" type="line"/>
      <point x="667.0" y="120.0" type="line"/>
      <point x="650.0" y="87.0" type="line"/>
      <point x="610.0" y="2.0" type="line" smooth="yes"/>
      <point x="529.0" y="-171.0"/>
      <point x="468.0" y="-239.0"/>
      <point x="372.0" y="-239.0" type="curve" smooth="yes"/>
      <point x="318.0" y="-239.0"/>
      <point x="208.0" y="-214.0"/>
      <point x="182.0" y="-214.0" type="curve" smooth="yes"/>
      <point x="159.0" y="-214.0"/>
      <point x="123.0" y="-256.0"/>
      <point x="123.0" y="-315.0" type="curve" smooth="yes"/>
      <point x="123.0" y="-411.0"/>
      <point x="186.0" y="-465.0"/>
    </contour>
  </outline>
</glyph>
<glyph name="asciitilde" format="2">
  <advance width="1140.0"/>
  <unicode hex="007E"/>
  <outline>
    <contour>
      <point x="136.5" y="366.0" type="curve"/>
      <point x="295.5" y="366.0" type="line"/>
      <point x="302.5" y="469.0"/>
      <point x="334.5" y="516.0"/>
      <point x="414.5" y="516.0" type="curve" smooth="yes"/>
      <point x="526.5" y="516.0"/>
      <point x="581.5" y="355.0"/>
      <point x="763.5" y="355.0" type="curve" smooth="yes"/>
      <point x="907.5" y="355.0"/>
      <point x="1002.5" y="442.0"/>
      <point x="1005.5" y="667.0" type="curve"/>
      <point x="846.5" y="667.0" type="line"/>
      <point x="839.5" y="563.0"/>
      <point x="807.5" y="517.0"/>
      <point x="727.5" y="517.0" type="curve" smooth="yes"/>
      <point x="615.5" y="517.0"/>
      <point x="560.5" y="677.0"/>
      <point x="378.5" y="677.0" type="curve" smooth="yes"/>
      <point x="234.5" y="677.0"/>
      <point x="139.5" y="591.0"/>
    </contour>
  </outline>
</glyph>
<glyph name="currency" format="2">
  <advance width="1134.0"/>
  <unicode hex="00A4"/>
  <outline>
    <contour>
      <point x="262.5" y="927.0" type="line"/>
      <point x="155.5" y="821.0" type="line"/>
      <point x="308.5" y="668.0" type="line"/>
      <point x="415.5" y="774.0" type="line"/>
    </contour>
    <contour>
      <point x="155.5" y="211.0" type="line"/>
      <point x="262.5" y="105.0" type="line"/>
      <point x="422.5" y="265.0" type="line"/>
      <point x="316.5" y="372.0" type="line"/>
    </contour>
    <contour>
      <point x="567.5" y="860.0" type="curve" smooth="yes"/>
      <point x="359.5" y="860.0"/>
      <point x="218.5" y="722.0"/>
      <point x="218.5" y="517.0" type="curve" smooth="yes"/>
      <point x="218.5" y="311.0"/>
      <point x="359.5" y="173.0"/>
      <point x="567.5" y="173.0" type="curve" smooth="yes"/>
      <point x="774.5" y="173.0"/>
      <point x="915.5" y="311.0"/>
      <point x="915.5" y="517.0" type="curve" smooth="yes"/>
      <point x="915.5" y="722.0"/>
      <point x="774.5" y="860.0"/>
    </contour>
    <contour>
      <point x="567.5" y="304.0" type="curve" smooth="yes"/>
      <point x="442.5" y="304.0"/>
      <point x="356.5" y="389.0"/>
      <point x="356.5" y="517.0" type="curve" smooth="yes"/>
      <point x="356.5" y="644.0"/>
      <point x="442.5" y="729.0"/>
      <point x="567.5" y="729.0" type="curve" smooth="yes"/>
      <point x="691.5" y="729.0"/>
      <point x="777.5" y="644.0"/>
      <point x="777.5" y="517.0" type="curve" smooth="yes"/>
      <point x="777.5" y="389.0"/>
      <point x="691.5" y="304.0"/>
    </contour>
    <contour>
      <point x="978.5" y="821.0" type="line"/>
      <point x="871.5" y="927.0" type="line"/>
      <point x="715.5" y="771.0" type="line"/>
      <point x="821.5" y="665.0" type="line"/>
    </contour>
    <contour>
      <point x="978.5" y="211.0" type="line"/>
      <point x="825.5" y="364.0" type="line"/>
      <point x="718.5" y="258.0" type="line"/>
      <point x="871.5" y="105.0" type="line"/>
    </contour>
  </outline>
</glyph>
<glyph name="copyright" format="2">
  <advance width="1726.0"/>
  <unicode hex="00A9"/>
  <outline>
    <contour>
      <point x="863.0" y="1434.0" type="curve"/>
      <point x="406.0" y="1434.0"/>
      <point x="129.0" y="1169.0"/>
      <point x="129.0" y="707.0" type="curve"/>
      <point x="129.0" y="245.0"/>
      <point x="406.0" y="-20.0"/>
      <point x="863.0" y="-20.0" type="curve"/>
      <point x="1320.0" y="-20.0"/>
      <point x="1598.0" y="245.0"/>
      <point x="1598.0" y="707.0" type="curve"/>
      <point x="1598.0" y="1169.0"/>
      <point x="1320.0" y="1434.0"/>
    </contour>
    <contour>
      <point x="863.0" y="1319.0" type="curve"/>
      <point x="1248.0" y="1319.0"/>
      <point x="1473.0" y="1105.0"/>
      <point x="1473.0" y="707.0" type="curve"/>
      <point x="1473.0" y="309.0"/>
      <point x="1248.0" y="95.0"/>
      <point x="863.0" y="95.0" type="curve"/>
      <point x="479.0" y="95.0"/>
      <point x="254.0" y="309.0"/>
      <point x="254.0" y="707.0" type="curve"/>
      <point x="254.0" y="1105.0"/>
      <point x="479.0" y="1319.0"/>
    </contour>
    <contour>
      <point x="940.0" y="405.0" type="curve" smooth="yes"/>
      <point x="742.0" y="405.0"/>
      <point x="627.0" y="494.0"/>
      <point x="627.0" y="704.0" type="curve" smooth="yes"/>
      <point x="627.0" y="926.0"/>
      <point x="734.0" y="1014.0"/>
      <point x="915.0" y="1014.0" type="curve" smooth="yes"/>
      <point x="1008.0" y="1014.0"/>
      <point x="1070.0" y="998.0"/>
      <point x="1140.0" y="958.0" type="curve"/>
      <point x="1080.0" y="1052.0" type="line"/>
      <point x="1126.0" y="844.0" type="line"/>
      <point x="1200.0" y="844.0" type="line"/>
      <point x="1200.0" y="1140.0" type="line"/>
      <point x="1140.0" y="1140.0" type="line"/>
      <point x="1097.0" y="1066.0" type="line"/>
      <point x="1155.0" y="1081.0" type="line"/>
      <point x="1084.0" y="1108.0"/>
      <point x="1001.0" y="1123.0"/>
      <point x="908.0" y="1123.0" type="curve" smooth="yes"/>
      <point x="620.0" y="1123.0"/>
      <point x="456.0" y="963.0"/>
      <point x="456.0" y="704.0" type="curve" smooth="yes"/>
      <point x="456.0" y="427.0"/>
      <point x="613.0" y="301.0"/>
      <point x="912.0" y="301.0" type="curve" smooth="yes"/>
      <point x="1008.0" y="301.0"/>
      <point x="1096.0" y="317.0"/>
      <point x="1173.0" y="344.0" type="curve"/>
      <point x="1206.0" y="563.0" type="line"/>
      <point x="1137.0" y="563.0" type="line"/>
      <point x="1057.0" y="354.0" type="line"/>
      <point x="1128.0" y="442.0" type="line"/>
      <point x="1072.0" y="416.0"/>
      <point x="995.0" y="405.0"/>
    </contour>
  </outline>
</glyph>
<glyph name="ordmasculine" format="2">
  <advance width="1021.0"/>
  <unicode hex="00BA"/>
  <outline>
    <contour>
      <point x="165.0" y="510.0" type="line"/>
      <point x="856.0" y="510.0" type="line"/>
      <point x="856.0" y="647.0" type="line"/>
      <point x="165.0" y="647.0" type="line"/>
    </contour>
    <contour>
      <point x="505.0" y="893.0" type="curve" smooth="yes"/>
      <point x="377.0" y="893.0"/>
      <point x="311.0" y="965.0"/>
      <point x="311.0" y="1102.0" type="curve" smooth="yes"/>
      <point x="311.0" y="1238.0"/>
      <point x="381.0" y="1309.0"/>
      <point x="516.0" y="1309.0" type="curve" smooth="yes"/>
      <point x="644.0" y="1309.0"/>
      <point x="710.0" y="1237.0"/>
      <point x="710.0" y="1100.0" type="curve" smooth="yes"/>
      <point x="710.0" y="964.0"/>
      <point x="640.0" y="893.0"/>
    </contour>
    <contour>
      <point x="504.0" y="768.0" type="curve" smooth="yes"/>
      <point x="740.0" y="768.0"/>
      <point x="870.0" y="880.0"/>
      <point x="870.0" y="1102.0" type="curve" smooth="yes"/>
      <point x="870.0" y="1317.0"/>
      <point x="737.0" y="1434.0"/>
      <point x="517.0" y="1434.0" type="curve" smooth="yes"/>
      <point x="281.0" y="1434.0"/>
      <point x="151.0" y="1322.0"/>
      <point x="151.0" y="1100.0" type="curve" smooth="yes"/>
      <point x="151.0" y="885.0"/>
      <point x="284.0" y="768.0"/>
    </contour>
  </outline>
</glyph>
<glyph name="guillemotright" format="2">
  <advance width="1258"/>
  <unicode hex="00BB"/>
  <outline>
    <contour>
      <point x="425.0" y="489.0" type="line"/>
      <point x="425.0" y="555.0" type="line"/>
      <point x="116.0" y="148.0" type="line"/>
      <point x="208.0" y="61.0" type="line"/>
      <point x="631.0" y="456.0" type="line"/>
      <point x="631.0" y="588.0" type="line"/>
      <point x="208.0" y="983.0" type="line"/>
      <point x="116.0" y="896.0" type="line"/>
    </contour>
    <contour>
      <point x="935.0" y="489.0" type="line"/>
      <point x="935.0" y="555.0" type="line"/>
      <point x="626.0" y="148.0" type="line"/>
      <point x="718.0" y="61.0" type="line"/>
      <point x="1141.0" y="456.0" type="line"/>
      <point x="1141.0" y="588.0" type="line"/>
      <point x="718.0" y="983.0" type="line"/>
      <point x="626.0" y="896.0" type="line"/>
    </contour>
  </outline>
</glyph>
<glyph name="questiondown" format="2">
  <advance width="1170.0"/>
  <unicode hex="00BF"/>
  <outline>
    <contour>
      <point x="642.0" y="-410.0" type="curve" smooth="yes"/>
      <point x="1014.0" y="-410.0"/>
      <point x="1114.0" y="-309.0"/>
      <point x="1114.0" y="-220.0" type="curve" smooth="yes"/>
      <point x="1114.0" y="-149.0"/>
      <point x="1063.0" y="-107.0"/>
      <point x="986.0" y="-107.0" type="curve" smooth="yes"/>
      <point x="920.0" y="-107.0"/>
      <point x="858.0" y="-266.0"/>
      <point x="626.0" y="-266.0" type="curve" smooth="yes"/>
      <point x="399.0" y="-266.0"/>
      <point x="302.0" y="-151.0"/>
      <point x="302.0" y="-11.0" type="curve" smooth="yes"/>
      <point x="302.0" y="150.0"/>
      <point x="398.0" y="220.0"/>
      <point x="728.0" y="222.0" type="curve"/>
      <point x="695.0" y="589.0" type="line"/>
      <point x="566.0" y="589.0" type="line"/>
      <point x="543.0" y="295.0" type="line"/>
      <point x="603.0" y="380.0" type="line"/>
      <point x="215.0" y="372.0"/>
      <point x="82.0" y="225.0"/>
      <point x="82.0" y="-14.0" type="curve" smooth="yes"/>
      <point x="82.0" y="-241.0"/>
      <point x="289.0" y="-410.0"/>
    </contour>
    <contour>
      <point x="631.0" y="730.0" type="curve" smooth="yes"/>
      <point x="726.0" y="730.0"/>
      <point x="788.0" y="784.0"/>
      <point x="788.0" y="884.0" type="curve" smooth="yes"/>
      <point x="788.0" y="984.0"/>
      <point x="726.0" y="1038.0"/>
      <point x="631.0" y="1038.0" type="curve" smooth="yes"/>
      <point x="536.0" y="1038.0"/>
      <point x="474.0" y="984.0"/>
      <point x="474.0" y="884.0" type="curve" smooth="yes"/>
      <point x="474.0" y="784.0"/>
      <point x="536.0" y="730.0"/>
    </contour>
  </outline>
</glyph>
<glyph name="Oslash" format="2">
  <advance width="1734"/>
  <unicode hex="00D8"/>
  <anchor x="867.0" y="1414.0" name="UCtop"/>
  <anchor x="867.0" y="0" name="bottom"/>
  <outline>
    <contour>
      <point x="419.0" y="307.0" type="line"/>
      <point x="364.0" y="250.0" type="line"/>
      <point x="139.0" y="0.0" type="line"/>
      <point x="321.0" y="0.0" type="line"/>
      <point x="464.0" y="159.0" type="line"/>
      <point x="509.0" y="213.0" type="line"/>
      <point x="1315.0" y="1107.0" type="line"/>
      <point x="1370.0" y="1164.0" type="line"/>
      <point x="1595.0" y="1414.0" type="line"/>
      <point x="1413.0" y="1414.0" type="line"/>
      <point x="1270.0" y="1255.0" type="line"/>
      <point x="1225.0" y="1201.0" type="line"/>
    </contour>
    <contour>
      <point x="865.0" y="1434.0" type="curve" smooth="yes"/>
      <point x="418.0" y="1434.0"/>
      <point x="139.0" y="1134.0"/>
      <point x="139.0" y="705.0" type="curve" smooth="yes"/>
      <point x="139.0" y="279.0"/>
      <point x="420.0" y="-20.0"/>
      <point x="869.0" y="-20.0" type="curve" smooth="yes"/>
      <point x="1316.0" y="-20.0"/>
      <point x="1595.0" y="280.0"/>
      <point x="1595.0" y="709.0" type="curve" smooth="yes"/>
      <point x="1595.0" y="1135.0"/>
      <point x="1314.0" y="1434.0"/>
    </contour>
    <contour>
      <point x="876.0" y="147.0" type="curve" smooth="yes"/>
      <point x="538.0" y="147.0"/>
      <point x="365.0" y="368.0"/>
      <point x="365.0" y="739.0" type="curve" smooth="yes"/>
      <point x="365.0" y="1068.0"/>
      <point x="532.0" y="1267.0"/>
      <point x="858.0" y="1267.0" type="curve" smooth="yes"/>
      <point x="1196.0" y="1267.0"/>
      <point x="1369.0" y="1046.0"/>
      <point x="1369.0" y="675.0" type="curve" smooth="yes"/>
      <point x="1369.0" y="346.0"/>
      <point x="1202.0" y="147.0"/>
    </contour>
  </outline>
</glyph>
<glyph name="ccedilla" format="2">
  <advance width="1096"/>
  <unicode hex="00E7"/>
  <outline>
    <contour>
      <point x="700.0" y="1044.0" type="curve" smooth="yes"/>
      <point x="343.0" y="1044.0"/>
      <point x="102.0" y="852.0"/>
      <point x="102.0" y="498.0" type="curve" smooth="yes"/>
      <point x="102.0" y="162.0"/>
      <point x="302.0" y="-20.0"/>
      <point x="596.0" y="-20.0" type="curve" smooth="yes"/>
      <point x="715.0" y="-20.0"/>
      <point x="864.0" y="36.0"/>
      <point x="994.0" y="124.0" type="curve"/>
      <point x="994.0" y="230.0" type="line"/>
      <point x="875.0" y="180.0"/>
      <point x="766.0" y="154.0"/>
      <point x="665.0" y="154.0" type="curve" smooth="yes"/>
      <point x="426.0" y="154.0"/>
      <point x="298.0" y="287.0"/>
      <point x="298.0" y="552.0" type="curve" smooth="yes"/>
      <point x="298.0" y="784.0"/>
      <point x="431.0" y="901.0"/>
      <point x="617.0" y="901.0" type="curve" smooth="yes"/>
      <point x="683.0" y="901.0"/>
      <point x="863.0" y="733.0"/>
      <point x="888.0" y="733.0" type="curve" smooth="yes"/>
      <point x="968.0" y="733.0"/>
      <point x="1022.0" y="799.0"/>
      <point x="1022.0" y="874.0" type="curve" smooth="yes"/>
      <point x="1022.0" y="947.0"/>
      <point x="950.0" y="1044.0"/>
    </contour>
    <contour>
      <point x="490.0" y="-465.0" type="curve" smooth="yes"/>
      <point x="652.0" y="-465.0"/>
      <point x="756.0" y="-404.0"/>
      <point x="756.0" y="-282.0" type="curve" smooth="yes"/>
      <point x="756.0" y="-201.0"/>
      <point x="715.0" y="-136.0"/>
      <point x="503.0" y="-96.0" type="curve"/>
      <point x="513.0" y="-171.0" type="line"/>
      <point x="668.0" y="23.0" type="line"/>
      <point x="561.0" y="23.0" type="line"/>
      <point x="399.0" y="-190.0" type="line"/>
      <point x="399.0" y="-212.0" type="line"/>
      <point x="588.0" y="-244.0"/>
      <point x="615.0" y="-268.0"/>
      <point x="615.0" y="-313.0" type="curve" smooth="yes"/>
      <point x="615.0" y="-361.0"/>
      <point x="585.0" y="-385.0"/>
      <point x="514.0" y="-385.0" type="curve" smooth="yes"/>
      <point x="452.0" y="-385.0"/>
      <point x="403.0" y="-315.0"/>
      <point x="387.0" y="-315.0" type="curve" smooth="yes"/>
      <point x="361.0" y="-315.0"/>
      <point x="328.0" y="-340.0"/>
      <point x="328.0" y="-381.0" type="curve" smooth="yes"/>
      <point x="328.0" y="-434.0"/>
      <point x="364.0" y="-465.0"/>
    </contour>
  </outline>
</glyph>
<glyph name="thorn" format="2">
  <advance width="1310"/>
  <unicode hex="00FE"/>
  <outline>
    <contour>
      <point x="40.0" y="1307.0"/>
      <point x="154.0" y="1266.0"/>
      <point x="180.0" y="1257.0" type="curve"/>
      <point x="180.0" y="-309.0" type="line"/>
      <point x="8.0" y="-349.0" type="line"/>
      <point x="8.0" y="-445.0" type="line"/>
      <point x="568.0" y="-445.0" type="line"/>
      <point x="568.0" y="-349.0" type="line"/>
      <point x="377.0" y="-311.0" type="line"/>
      <point x="377.0" y="271.0" type="line"/>
      <point x="360.0" y="271.0" type="line"/>
      <point x="370.0" y="119.0"/>
      <point x="512.0" y="-20.0"/>
      <point x="703.0" y="-20.0" type="curve" smooth="yes"/>
      <point x="988.0" y="-20.0"/>
      <point x="1207.0" y="197.0"/>
      <point x="1207.0" y="552.0" type="curve" smooth="yes"/>
      <point x="1207.0" y="857.0"/>
      <point x="1037.0" y="1044.0"/>
      <point x="726.0" y="1044.0" type="curve" smooth="yes"/>
      <point x="636.0" y="1044.0"/>
      <point x="521.0" y="1008.0"/>
      <point x="308.0" y="894.0" type="curve"/>
      <point x="308.0" y="788.0" type="line"/>
      <point x="415.0" y="837.0"/>
      <point x="532.0" y="865.0"/>
      <point x="650.0" y="865.0" type="curve" smooth="yes"/>
      <point x="864.0" y="865.0"/>
      <point x="992.0" y="748.0"/>
      <point x="992.0" y="500.0" type="curve" smooth="yes"/>
      <point x="992.0" y="264.0"/>
      <point x="870.0" y="120.0"/>
      <point x="662.0" y="120.0" type="curve" smooth="yes"/>
      <point x="504.0" y="120.0"/>
      <point x="378.0" y="201.0"/>
      <point x="378.0" y="358.0" type="curve" smooth="yes"/>
      <point x="378.0" y="1278.0" type="line"/>
      <point x="398.0" y="1484.0" type="line"/>
      <point x="356.0" y="1484.0" type="line"/>
      <point x="-38.0" y="1414.0" type="line"/>
      <point x="-38.0" y="1335.0" type="line"/>
    </contour>
  </outline>
</glyph>
<glyph name="aogonek" format="2">
  <advance width="1195.0"/>
  <unicode hex="0105"/>
  <outline>
    <contour>
      <point x="1181.0" y="74.0" type="line"/>
      <point x="1181.0" y="164.0" type="line"/>
      <point x="1143.0" y="156.0"/>
      <point x="1108.0" y="151.0"/>
      <point x="1078.0" y="151.0" type="curve" smooth="yes"/>
      <point x="1004.0" y="151.0"/>
      <point x="964.0" y="182.0"/>
      <point x="964.0" y="262.0" type="curve" smooth="yes"/>
      <point x="964.0" y="736.0" type="line" smooth="yes"/>
      <point x="964.0" y="924.0"/>
      <point x="869.0" y="1044.0"/>
      <point x="600.0" y="1044.0" type="curve" smooth="yes"/>
      <point x="312.0" y="1044.0"/>
      <point x="112.0" y="889.0"/>
      <point x="112.0" y="797.0" type="curve" smooth="yes"/>
      <point x="112.0" y="753.0"/>
      <point x="155.0" y="717.0"/>
      <point x="237.0" y="717.0" type="curve" smooth="yes"/>
      <point x="291.0" y="717.0"/>
      <point x="326.0" y="724.0"/>
      <point x="349.0" y="776.0" type="curve" smooth="yes"/>
      <point x="372.0" y="828.0"/>
      <point x="387.0" y="873.0"/>
      <point x="407.0" y="957.0" type="curve"/>
      <point x="331.0" y="884.0" type="line"/>
      <point x="390.0" y="897.0"/>
      <point x="456.0" y="905.0"/>
      <point x="542.0" y="905.0" type="curve" smooth="yes"/>
      <point x="713.0" y="905.0"/>
      <point x="767.0" y="839.0"/>
      <point x="767.0" y="686.0" type="curve" smooth="yes"/>
      <point x="767.0" y="325.0" type="line" smooth="yes"/>
      <point x="767.0" y="221.0"/>
      <point x="659.0" y="144.0"/>
      <point x="522.0" y="144.0" type="curve" smooth="yes"/>
      <point x="398.0" y="144.0"/>
      <point x="338.0" y="194.0"/>
      <point x="338.0" y="291.0" type="curve" smooth="yes"/>
      <point x="338.0" y="410.0"/>
      <point x="399.0" y="468.0"/>
      <point x="854.0" y="528.0" type="curve"/>
      <point x="901.0" y="660.0" type="line"/>
      <point x="239.0" y="575.0"/>
      <point x="118.0" y="462.0"/>
      <point x="118.0" y="256.0" type="curve" smooth="yes"/>
      <point x="118.0" y="80.0"/>
      <point x="232.0" y="-20.0"/>
      <point x="438.0" y="-20.0" type="curve"/>
      <point x="630.0" y="-20.0"/>
      <point x="749.0" y="93.0"/>
      <point x="774.0" y="272.0" type="curve"/>
      <point x="766.0" y="272.0" type="line"/>
      <point x="773.0" y="73.0"/>
      <point x="844.0" y="-15.0"/>
      <point x="970.0" y="-15.0" type="curve"/>
      <point x="997.0" y="-15.0"/>
      <point x="1026.0" y="-10.0"/>
      <point x="1054.0" y="-1.0" type="curve"/>
      <point x="1044.0" y="12.0" type="line"/>
      <point x="962.0" y="-80.0" type="line" smooth="yes"/>
      <point x="855.0" y="-200.0"/>
      <point x="833.0" y="-251.0"/>
      <point x="833.0" y="-314.0" type="curve" smooth="yes"/>
      <point x="833.0" y="-403.0"/>
      <point x="882.0" y="-465.0"/>
      <point x="1003.0" y="-465.0" type="curve" smooth="yes"/>
      <point x="1075.0" y="-465.0"/>
      <point x="1116.0" y="-448.0"/>
      <point x="1191.0" y="-389.0" type="curve"/>
      <point x="1191.0" y="-319.0" type="line"/>
      <point x="1139.0" y="-346.0"/>
      <point x="1114.0" y="-351.0"/>
      <point x="1076.0" y="-351.0" type="curve" smooth="yes"/>
      <point x="1020.0" y="-351.0"/>
      <point x="988.0" y="-319.0"/>
      <point x="988.0" y="-262.0" type="curve" smooth="yes"/>
      <point x="988.0" y="-214.0"/>
      <point x="1008.0" y="-172.0"/>
      <point x="1073.0" y="-79.0" type="curve" smooth="yes"/>
    </contour>
  </outline>
</glyph>
<glyph name="dcroat" format="2">
  <advance width="1359.0"/>
  <unicode hex="0111"/>
  <outline>
    <contour>
      <point x="932.0" y="668.0" type="curve" smooth="yes"/>
      <point x="932.0" y="199.0" type="line"/>
      <point x="1007.0" y="-20.0" type="line"/>
      <point x="1045.0" y="-20.0" type="line"/>
      <point x="1314.0" y="106.0" type="line"/>
      <point x="1314.0" y="148.0" type="line"/>
      <point x="1272.0" y="168.77173913043478"/>
      <point x="1154.0" y="227.1304347826087"/>
      <point x="1130.0" y="239.0" type="curve"/>
      <point x="1130.0" y="1278.0" type="line"/>
      <point x="1150.0" y="1484.0" type="line"/>
      <point x="1108.0" y="1484.0" type="line"/>
      <point x="746.0" y="1414.0" type="line"/>
      <point x="746.0" y="1335.0" type="line"/>
      <point x="795.0" y="1324.0"/>
      <point x="912.0" y="1297.0"/>
      <point x="932.0" y="1292.0" type="curve"/>
      <point x="932.0" y="888.0" type="line"/>
      <point x="1048.0" y="936.0" type="line"/>
      <point x="919.0" y="1016.0"/>
      <point x="820.0" y="1044.0"/>
      <point x="675.0" y="1044.0" type="curve" smooth="yes"/>
      <point x="347.0" y="1044.0"/>
      <point x="103.0" y="822.0"/>
      <point x="103.0" y="472.0" type="curve" smooth="yes"/>
      <point x="103.0" y="167.0"/>
      <point x="259.0" y="-20.0"/>
      <point x="565.0" y="-20.0" type="curve" smooth="yes"/>
      <point x="645.0" y="-20.0"/>
      <point x="722.0" y="3.0"/>
      <point x="1020.0" y="220.0" type="curve"/>
      <point x="1020.0" y="254.0" type="line"/>
      <point x="900.0" y="192.0"/>
      <point x="784.0" y="159.0"/>
      <point x="660.0" y="159.0" type="curve" smooth="yes"/>
      <point x="436.0" y="159.0"/>
      <point x="318.0" y="271.0"/>
      <point x="318.0" y="514.0" type="curve" smooth="yes"/>
      <point x="318.0" y="760.0"/>
      <point x="440.0" y="906.0"/>
      <point x="666.0" y="906.0" type="curve" smooth="yes"/>
      <point x="864.0" y="906.0"/>
      <point x="932.0" y="817.0"/>
    </contour>
    <contour>
      <point x="598.0" y="1110.0" type="line"/>
      <point x="1314.0" y="1110.0" type="line"/>
      <point x="1314.0" y="1230.0" type="line"/>
      <point x="598.0" y="1230.0" type="line"/>
    </contour>
  </outline>
</glyph>
<glyph name="Iogonek" format="2">
  <advance width="830.0"/>
  <unicode hex="012E"/>
  <outline>
    <contour>
      <point x="720.0" y="106.0" type="line"/>
      <point x="524.0" y="151.0" type="line"/>
      <point x="524.0" y="1263.0" type="line"/>
      <point x="720.0" y="1308.0" type="line"/>
      <point x="720.0" y="1414.0" type="line"/>
      <point x="110.0" y="1414.0" type="line"/>
      <point x="110.0" y="1308.0" type="line"/>
      <point x="306.0" y="1263.0" type="line"/>
      <point x="306.0" y="151.0" type="line"/>
      <point x="110.0" y="106.0" type="line"/>
      <point x="110.0" y="0.0" type="line"/>
      <point x="720.0" y="0.0" type="line"/>
    </contour>
    <contour>
      <point x="420.0" y="-73.0" type="curve" smooth="yes"/>
      <point x="480.0" y="45.0" type="line"/>
      <point x="397.0" y="45.0" type="line"/>
      <point x="308.0" y="-76.0" type="line" smooth="yes"/>
      <point x="221.0" y="-194.0"/>
      <point x="207.0" y="-251.0"/>
      <point x="207.0" y="-314.0" type="curve" smooth="yes"/>
      <point x="207.0" y="-403.0"/>
      <point x="256.0" y="-465.0"/>
      <point x="377.0" y="-465.0" type="curve" smooth="yes"/>
      <point x="449.0" y="-465.0"/>
      <point x="490.0" y="-448.0"/>
      <point x="565.0" y="-389.0" type="curve"/>
      <point x="565.0" y="-319.0" type="line"/>
      <point x="513.0" y="-346.0"/>
      <point x="488.0" y="-351.0"/>
      <point x="450.0" y="-351.0" type="curve" smooth="yes"/>
      <point x="394.0" y="-351.0"/>
      <point x="362.0" y="-319.0"/>
      <point x="362.0" y="-262.0" type="curve" smooth="yes"/>
      <point x="362.0" y="-214.0"/>
      <point x="372.0" y="-167.0"/>
    </contour>
  </outline>
</glyph>
<glyph name="iogonek" format="2">
  <advance width="691"/>
  <unicode hex="012F"/>
  <outline>
    <contour>
      <point x="343.0" y="1212.0" type="curve" smooth="yes"/>
      <point x="438.0" y="1212.0"/>
      <point x="502.0" y="1256.0"/>
      <point x="502.0" y="1348.0" type="curve" smooth="yes"/>
      <point x="502.0" y="1440.0"/>
      <point x="438.0" y="1484.0"/>
      <point x="343.0" y="1484.0" type="curve" smooth="yes"/>
      <point x="248.0" y="1484.0"/>
      <point x="184.0" y="1440.0"/>
      <point x="184.0" y="1348.0" type="curve" smooth="yes"/>
      <point x="184.0" y="1256.0"/>
      <point x="248.0" y="1212.0"/>
    </contour>
    <contour>
      <point x="476.0" y="1044.0" type="line"/>
      <point x="418.0" y="1044.0" type="line"/>
      <point x="83.0" y="943.0" type="line"/>
      <point x="83.0" y="882.0" type="line"/>
      <point x="144.0" y="850.9944751381215"/>
      <point x="242.0" y="801.182320441989"/>
      <point x="264.0" y="790.0" type="curve"/>
      <point x="264.0" y="136.0" type="line"/>
      <point x="97.0" y="96.0" type="line"/>
      <point x="97.0" y="0.0" type="line"/>
      <point x="620.0" y="0.0" type="line"/>
      <point x="620.0" y="96.0" type="line"/>
      <point x="462.0" y="136.0" type="line"/>
      <point x="462.0" y="820.0" type="line"/>
    </contour>
    <contour>
      <point x="377.0" y="-77.0" type="curve" smooth="yes"/>
      <point x="440.0" y="45.0" type="line"/>
      <point x="358.0" y="45.0" type="line"/>
      <point x="266.0" y="-78.0" type="line" smooth="yes"/>
      <point x="179.0" y="-195.0"/>
      <point x="162.0" y="-251.0"/>
      <point x="162.0" y="-314.0" type="curve" smooth="yes"/>
      <point x="162.0" y="-403.0"/>
      <point x="211.0" y="-465.0"/>
      <point x="332.0" y="-465.0" type="curve" smooth="yes"/>
      <point x="404.0" y="-465.0"/>
      <point x="445.0" y="-448.0"/>
      <point x="520.0" y="-389.0" type="curve"/>
      <point x="520.0" y="-319.0" type="line"/>
      <point x="468.0" y="-346.0"/>
      <point x="443.0" y="-351.0"/>
      <point x="405.0" y="-351.0" type="curve" smooth="yes"/>
      <point x="349.0" y="-351.0"/>
      <point x="317.0" y="-319.0"/>
      <point x="317.0" y="-262.0" type="curve" smooth="yes"/>
      <point x="317.0" y="-214.0"/>
      <point x="328.0" y="-172.0"/>
    </contour>
  </outline>
</glyph>
<glyph name="kgreenlandic" format="2">
  <advance width="1357.0"/>
  <unicode hex="0138"/>
  <outline>
    <contour>
      <point x="618.0" y="466.0" type="line"/>
      <point x="953.0" y="128.0" type="line"/>
      <point x="954.0" y="96.0" type="line"/>
      <point x="954.0" y="0.0" type="line"/>
      <point x="1332.0" y="0.0" type="line"/>
      <point x="1332.0" y="96.0" type="line"/>
      <point x="1196.0" y="142.0" type="line"/>
      <point x="740.0" y="607.0" type="line"/>
      <point x="717.0" y="524.0" type="line"/>
      <point x="1127.0" y="897.0" type="line"/>
      <point x="1268.0" y="933.0" type="line"/>
      <point x="1268.0" y="1024.0" type="line"/>
      <point x="763.0" y="1024.0" type="line"/>
      <point x="763.0" y="933.0" type="line"/>
      <point x="912.0" y="894.0" type="line"/>
      <point x="648.0" y="613.0" type="line"/>
      <point x="418.0" y="613.0" type="line"/>
      <point x="418.0" y="466.0" type="line"/>
    </contour>
    <contour>
      <point x="474.0" y="1044.0" type="line"/>
      <point x="416.0" y="1044.0" type="line"/>
      <point x="81.0" y="943.0" type="line"/>
      <point x="81.0" y="882.0" type="line"/>
      <point x="142.0" y="850.9944751381215"/>
      <point x="240.0" y="801.182320441989"/>
      <point x="262.0" y="790.0" type="curve"/>
      <point x="262.0" y="136.0" type="line"/>
      <point x="95.0" y="96.0" type="line"/>
      <point x="95.0" y="0.0" type="line"/>
      <point x="618.0" y="0.0" type="line"/>
      <point x="618.0" y="96.0" type="line"/>
      <point x="460.0" y="136.0" type="line"/>
      <point x="460.0" y="820.0" type="line"/>
    </contour>
  </outline>
</glyph>
<glyph name="Eng" format="2">
  <advance width="1745.0"/>
  <unicode hex="014A"/>
  <guideline x="1325.0" y="309" angle="352.71075101539674" identifier="OPVwyfRVwP"/>
  <outline>
    <contour>
      <point x="1334.0" y="309.0" type="line"/>
      <point x="613.0" y="1414.0" type="line"/>
      <point x="116.0" y="1414.0" type="line"/>
      <point x="116.0" y="1308.0" type="line"/>
      <point x="304.0" y="1263.0" type="line"/>
      <point x="304.0" y="151.0" type="line"/>
      <point x="116.0" y="106.0" type="line"/>
      <point x="116.0" y="0.0" type="line"/>
      <point x="680.0" y="0.0" type="line"/>
      <point x="680.0" y="106.0" type="line"/>
      <point x="474.0" y="151.0" type="line"/>
      <point x="474.0" y="1298.0" type="line"/>
      <point x="434.0" y="1298.0" type="line"/>
      <point x="1325.0" y="-67.0" type="line"/>
    </contour>
    <contour>
      <point x="1464.0" y="-96.0" type="curve" smooth="yes"/>
      <point x="1464.0" y="1263.0" type="line"/>
      <point x="1652.0" y="1308.0" type="line"/>
      <point x="1652.0" y="1414.0" type="line"/>
      <point x="1088.0" y="1414.0" type="line"/>
      <point x="1088.0" y="1308.0" type="line"/>
      <point x="1294.0" y="1263.0" type="line"/>
      <point x="1294.0" y="-97.0" type="line" smooth="yes"/>
      <point x="1294.0" y="-254.0"/>
      <point x="1231.0" y="-302.0"/>
      <point x="1098.0" y="-302.0" type="curve" smooth="yes"/>
      <point x="1016.0" y="-302.0"/>
      <point x="935.0" y="-222.0"/>
      <point x="908.0" y="-222.0" type="curve" smooth="yes"/>
      <point x="858.0" y="-222.0"/>
      <point x="823.0" y="-272.0"/>
      <point x="823.0" y="-327.0" type="curve" smooth="yes"/>
      <point x="823.0" y="-401.0"/>
      <point x="890.0" y="-465.0"/>
      <point x="1084.0" y="-465.0" type="curve" smooth="yes"/>
      <point x="1331.0" y="-465.0"/>
      <point x="1464.0" y="-355.0"/>
    </contour>
  </outline>
</glyph>
<glyph name="Scedilla" format="2">
  <advance width="1317.0"/>
  <unicode hex="015E"/>
  <outline>
    <contour>
      <point x="1074.0" y="1348.0" type="line"/>
      <point x="948.0" y="1409.0"/>
      <point x="834.0" y="1434.0"/>
      <point x="691.0" y="1434.0" type="curve" smooth="yes"/>
      <point x="344.0" y="1434.0"/>
      <point x="151.0" y="1306.0"/>
      <point x="151.0" y="1050.0" type="curve" smooth="yes"/>
      <point x="151.0" y="759.0"/>
      <point x="362.0" y="693.0"/>
      <point x="566.0" y="648.0" type="curve" smooth="yes"/>
      <point x="770.0" y="603.0"/>
      <point x="972.0" y="576.0"/>
      <point x="972.0" y="378.0" type="curve" smooth="yes"/>
      <point x="972.0" y="197.0"/>
      <point x="849.0" y="133.0"/>
      <point x="587.0" y="133.0" type="curve" smooth="yes"/>
      <point x="440.0" y="133.0"/>
      <point x="351.0" y="154.0"/>
      <point x="233.0" y="210.0" type="curve"/>
      <point x="444.0" y="43.0" type="line"/>
      <point x="278.0" y="444.0" type="line"/>
      <point x="122.0" y="444.0" type="line"/>
      <point x="182.0" y="32.0" type="line"/>
      <point x="310.0" y="-11.0"/>
      <point x="428.0" y="-20.0"/>
      <point x="588.0" y="-20.0" type="curve" smooth="yes"/>
      <point x="961.0" y="-20.0"/>
      <point x="1186.0" y="100.0"/>
      <point x="1186.0" y="405.0" type="curve" smooth="yes"/>
      <point x="1186.0" y="739.0"/>
      <point x="935.0" y="790.0"/>
      <point x="732.0" y="829.0" type="curve" smooth="yes"/>
      <point x="529.0" y="868.0"/>
      <point x="362.0" y="898.0"/>
      <point x="362.0" y="1076.0" type="curve" smooth="yes"/>
      <point x="362.0" y="1230.0"/>
      <point x="485.0" y="1285.0"/>
      <point x="681.0" y="1285.0" type="curve" smooth="yes"/>
      <point x="787.0" y="1285.0"/>
      <point x="873.0" y="1265.0"/>
      <point x="961.0" y="1208.0" type="curve"/>
      <point x="897.0" y="1276.0" type="line"/>
      <point x="977.0" y="983.0" type="line"/>
      <point x="1135.0" y="983.0" type="line"/>
      <point x="1135.0" y="1484.0" type="line"/>
      <point x="1015.0" y="1484.0" type="line"/>
      <point x="928.0" y="1371.0" type="line"/>
    </contour>
    <contour>
      <point x="582.0" y="-465.0" type="curve" smooth="yes"/>
      <point x="744.0" y="-465.0"/>
      <point x="848.0" y="-404.0"/>
      <point x="848.0" y="-282.0" type="curve" smooth="yes"/>
      <point x="848.0" y="-201.0"/>
      <point x="807.0" y="-136.0"/>
      <point x="595.0" y="-96.0" type="curve"/>
      <point x="605.0" y="-171.0" type="line"/>
      <point x="760.0" y="23.0" type="line"/>
      <point x="653.0" y="23.0" type="line"/>
      <point x="491.0" y="-190.0" type="line"/>
      <point x="491.0" y="-212.0" type="line"/>
      <point x="680.0" y="-244.0"/>
      <point x="707.0" y="-268.0"/>
      <point x="707.0" y="-313.0" type="curve" smooth="yes"/>
      <point x="707.0" y="-361.0"/>
      <point x="677.0" y="-385.0"/>
      <point x="606.0" y="-385.0" type="curve" smooth="yes"/>
      <point x="544.0" y="-385.0"/>
      <point x="495.0" y="-315.0"/>
      <point x="479.0" y="-315.0" type="curve" smooth="yes"/>
      <point x="453.0" y="-315.0"/>
      <point x="420.0" y="-340.0"/>
      <point x="420.0" y="-381.0" type="curve" smooth="yes"/>
      <point x="420.0" y="-434.0"/>
      <point x="456.0" y="-465.0"/>
    </contour>
  </outline>
</glyph>
<glyph name="uogonek" format="2">
  <advance width="1324.0"/>
  <unicode hex="0173"/>
  <outline>
    <contour>
      <point x="418.0" y="354.0" type="curve" smooth="yes"/>
      <point x="418.0" y="878.0" type="line"/>
      <point x="440.0" y="1034.0" type="line"/>
      <point x="36.0" y="1024.0" type="line"/>
      <point x="36.0" y="927.0" type="line"/>
      <point x="220.0" y="859.0" type="line"/>
      <point x="220.0" y="289.0" type="line" smooth="yes"/>
      <point x="220.0" y="85.0"/>
      <point x="316.0" y="-20.0"/>
      <point x="532.0" y="-20.0" type="curve" smooth="yes"/>
      <point x="651.0" y="-20.0"/>
      <point x="682.0" y="-8.0"/>
      <point x="918.0" y="172.0" type="curve"/>
      <point x="903.0" y="218.0" type="line"/>
      <point x="826.0" y="192.0"/>
      <point x="727.0" y="173.0"/>
      <point x="639.0" y="173.0" type="curve" smooth="yes"/>
      <point x="478.0" y="173.0"/>
      <point x="418.0" y="225.0"/>
    </contour>
    <contour>
      <point x="969.0" y="-20.0" type="line"/>
      <point x="1007.0" y="-20.0" type="line"/>
      <point x="1276.0" y="106.0" type="line"/>
      <point x="1276.0" y="148.0" type="line"/>
      <point x="1234.0" y="168.77173913043478"/>
      <point x="1116.0" y="227.1304347826087"/>
      <point x="1092.0" y="239.0" type="curve"/>
      <point x="1092.0" y="878.0" type="line"/>
      <point x="1112.0" y="1034.0" type="line"/>
      <point x="718.0" y="1024.0" type="line"/>
      <point x="718.0" y="927.0" type="line"/>
      <point x="894.0" y="859.0" type="line"/>
      <point x="894.0" y="159.0" type="line"/>
    </contour>
    <contour>
      <point x="1005.0" y="-76.0" type="curve" smooth="yes"/>
      <point x="1078.0" y="45.0" type="line"/>
      <point x="996.0" y="45.0" type="line"/>
      <point x="896.0" y="-82.0" type="line" smooth="yes"/>
      <point x="803.0" y="-200.0"/>
      <point x="788.0" y="-251.0"/>
      <point x="788.0" y="-314.0" type="curve" smooth="yes"/>
      <point x="788.0" y="-403.0"/>
      <point x="837.0" y="-465.0"/>
      <point x="958.0" y="-465.0" type="curve" smooth="yes"/>
      <point x="1030.0" y="-465.0"/>
      <point x="1071.0" y="-448.0"/>
      <point x="1146.0" y="-389.0" type="curve"/>
      <point x="1146.0" y="-319.0" type="line"/>
      <point x="1094.0" y="-346.0"/>
      <point x="1069.0" y="-351.0"/>
      <point x="1031.0" y="-351.0" type="curve" smooth="yes"/>
      <point x="975.0" y="-351.0"/>
      <point x="943.0" y="-319.0"/>
      <point x="943.0" y="-262.0" type="curve" smooth="yes"/>
      <point x="943.0" y="-214.0"/>
      <point x="950.0" y="-168.0"/>
    </contour>
  </outline>
</glyph>
<glyph name="uni018F" format="2">
  <advance width="1525.0"/>
  <unicode hex="018F"/>
  <outline>
    <contour>
      <point x="322.0" y="577.0" type="line"/>
      <point x="1282.0" y="577.0" type="line"/>
      <point x="1282.0" y="733.0" type="line"/>
      <point x="124.0" y="733.0" type="line"/>
      <point x="128.0" y="248.0"/>
      <point x="287.0" y="-20.0"/>
      <point x="732.0" y="-20.0" type="curve" smooth="yes"/>
      <point x="1134.0" y="-20.0"/>
      <point x="1404.0" y="270.0"/>
      <point x="1404.0" y="726.0" type="curve" smooth="yes"/>
      <point x="1404.0" y="1186.0"/>
      <point x="1126.0" y="1434.0"/>
      <point x="703.0" y="1434.0" type="curve" smooth="yes"/>
      <point x="541.0" y="1434.0"/>
      <point x="307.0" y="1371.0"/>
      <point x="134.0" y="1258.0" type="curve"/>
      <point x="134.0" y="1138.0" type="line"/>
      <point x="263.0" y="1188.0"/>
      <point x="417.0" y="1237.0"/>
      <point x="597.0" y="1237.0" type="curve" smooth="yes"/>
      <point x="993.0" y="1237.0"/>
      <point x="1179.0" y="1067.0"/>
      <point x="1179.0" y="644.0" type="curve" smooth="yes"/>
      <point x="1179.0" y="300.0"/>
      <point x="1012.0" y="147.0"/>
      <point x="729.0" y="147.0" type="curve" smooth="yes"/>
      <point x="501.0" y="147.0"/>
      <point x="359.0" y="284.0"/>
      <point x="353.0" y="638.0" type="curve"/>
    </contour>
  </outline>
</glyph>
<glyph name="ohorn" format="2">
  <advance width="1292.0"/>
  <unicode hex="01A1"/>
  <anchor x="634.0" y="1024.0" name="top"/>
  <anchor x="634.0" y="0" name="bottom"/>
  <outline>
    <contour>
      <point x="622.0" y="130.0" type="curve" smooth="yes"/>
      <point x="405.0" y="130.0"/>
      <point x="307.0" y="267.0"/>
      <point x="307.0" y="536.0" type="curve" smooth="yes"/>
      <point x="307.0" y="782.0"/>
      <point x="423.0" y="894.0"/>
      <point x="645.0" y="894.0" type="curve" smooth="yes"/>
      <point x="862.0" y="894.0"/>
      <point x="960.0" y="757.0"/>
      <point x="960.0" y="488.0" type="curve" smooth="yes"/>
      <point x="960.0" y="242.0"/>
      <point x="844.0" y="130.0"/>
    </contour>
    <contour>
      <point x="1208.0" y="1187.0" type="curve" smooth="yes"/>
      <point x="1208.0" y="1285.0"/>
      <point x="1152.0" y="1320.0"/>
      <point x="1086.0" y="1320.0" type="curve" smooth="yes"/>
      <point x="1032.0" y="1320.0"/>
      <point x="985.0" y="1288.0"/>
      <point x="985.0" y="1250.0" type="curve" smooth="yes"/>
      <point x="985.0" y="1237.0"/>
      <point x="1026.0" y="1195.0"/>
      <point x="1026.0" y="1133.0" type="curve" smooth="yes"/>
      <point x="1026.0" y="1061.0"/>
      <point x="994.0" y="1026.0"/>
      <point x="893.0" y="1026.0" type="curve" smooth="yes"/>
      <point x="828.0" y="1026.0"/>
      <point x="720.0" y="1044.0"/>
      <point x="643.0" y="1044.0" type="curve" smooth="yes"/>
      <point x="309.0" y="1044.0"/>
      <point x="102.0" y="836.0"/>
      <point x="102.0" y="512.0" type="curve" smooth="yes"/>
      <point x="102.0" y="189.0"/>
      <point x="298.0" y="-20.0"/>
      <point x="624.0" y="-20.0" type="curve" smooth="yes"/>
      <point x="958.0" y="-20.0"/>
      <point x="1165.0" y="188.0"/>
      <point x="1165.0" y="512.0" type="curve" smooth="yes"/>
      <point x="1165.0" y="694.0"/>
      <point x="1102.0" y="849.0"/>
      <point x="967.0" y="949.0" type="curve"/>
      <point x="964.0" y="938.0" type="line"/>
      <point x="1119.0" y="944.0"/>
      <point x="1208.0" y="1013.0"/>
    </contour>
  </outline>
</glyph>
<glyph name="uni01EB" format="2">
  <advance width="1267.0"/>
  <unicode hex="01EB"/>
  <outline>
    <contour>
      <point x="622.0" y="130.0" type="curve" smooth="yes"/>
      <point x="405.0" y="130.0"/>
      <point x="307.0" y="267.0"/>
      <point x="307.0" y="536.0" type="curve" smooth="yes"/>
      <point x="307.0" y="782.0"/>
      <point x="423.0" y="894.0"/>
      <point x="645.0" y="894.0" type="curve" smooth="yes"/>
      <point x="862.0" y="894.0"/>
      <point x="960.0" y="757.0"/>
      <point x="960.0" y="488.0" type="curve" smooth="yes"/>
      <point x="960.0" y="242.0"/>
      <point x="844.0" y="130.0"/>
    </contour>
    <contour>
      <point x="624.0" y="-20.0" type="curve" smooth="yes"/>
      <point x="958.0" y="-20.0"/>
      <point x="1165.0" y="188.0"/>
      <point x="1165.0" y="512.0" type="curve" smooth="yes"/>
      <point x="1165.0" y="835.0"/>
      <point x="969.0" y="1044.0"/>
      <point x="643.0" y="1044.0" type="curve" smooth="yes"/>
      <point x="309.0" y="1044.0"/>
      <point x="102.0" y="836.0"/>
      <point x="102.0" y="512.0" type="curve" smooth="yes"/>
      <point x="102.0" y="189.0"/>
      <point x="298.0" y="-20.0"/>
    </contour>
    <contour>
      <point x="690.0" y="-77.0" type="curve" smooth="yes"/>
      <point x="744.0" y="45.0" type="line"/>
      <point x="662.0" y="45.0" type="line"/>
      <point x="579.0" y="-78.0" type="line" smooth="yes"/>
      <point x="498.0" y="-198.0"/>
      <point x="477.0" y="-251.0"/>
      <point x="477.0" y="-314.0" type="curve" smooth="yes"/>
      <point x="477.0" y="-403.0"/>
      <point x="526.0" y="-465.0"/>
      <point x="647.0" y="-465.0" type="curve" smooth="yes"/>
      <point x="719.0" y="-465.0"/>
      <point x="760.0" y="-448.0"/>
      <point x="835.0" y="-389.0" type="curve"/>
      <point x="835.0" y="-319.0" type="line"/>
      <point x="783.0" y="-346.0"/>
      <point x="758.0" y="-351.0"/>
      <point x="720.0" y="-351.0" type="curve" smooth="yes"/>
      <point x="664.0" y="-351.0"/>
      <point x="632.0" y="-319.0"/>
      <point x="632.0" y="-262.0" type="curve" smooth="yes"/>
      <point x="632.0" y="-214.0"/>
      <point x="648.0" y="-173.0"/>
    </contour>
  </outline>
</glyph>
<glyph name="uni0259" format="2">
  <advance width="1144.0"/>
  <unicode hex="0259"/>
  <outline>
    <contour>
      <point x="550.0" y="-20.0" type="curve" smooth="yes"/>
      <point x="846.0" y="-20.0"/>
      <point x="1041.0" y="193.0"/>
      <point x="1041.0" y="526.0" type="curve" smooth="yes"/>
      <point x="1041.0" y="862.0"/>
      <point x="842.0" y="1044.0"/>
      <point x="530.0" y="1044.0" type="curve" smooth="yes"/>
      <point x="409.0" y="1044.0"/>
      <point x="246.0" y="987.0"/>
      <point x="113.0" y="900.0" type="curve"/>
      <point x="113.0" y="794.0" type="line"/>
      <point x="205.0" y="831.0"/>
      <point x="316.0" y="870.0"/>
      <point x="448.0" y="870.0" type="curve" smooth="yes"/>
      <point x="719.0" y="870.0"/>
      <point x="845.0" y="754.0"/>
      <point x="845.0" y="471.0" type="curve" smooth="yes"/>
      <point x="845.0" y="224.0"/>
      <point x="739.0" y="120.0"/>
      <point x="555.0" y="120.0" type="curve" smooth="yes"/>
      <point x="405.0" y="120.0"/>
      <point x="315.0" y="203.0"/>
      <point x="310.0" y="424.0" type="curve"/>
      <point x="252.0" y="403.0" type="line"/>
      <point x="881.0" y="403.0" type="line"/>
      <point x="875.0" y="539.0" type="line"/>
      <point x="105.0" y="539.0" type="line"/>
      <point x="108.0" y="180.0"/>
      <point x="226.0" y="-20.0"/>
    </contour>
  </outline>
</glyph>
<glyph name="acutecomb" format="2">
  <unicode hex="0301"/>
  <anchor x="0" y="1024" name="_top"/>
  <anchor x="0" y="1535" name="top"/>
  <outline>
    <contour>
      <point x="-72.0" y="1138.0" type="line"/>
      <point x="52.0" y="1138.0" type="line"/>
      <point x="368.0" y="1421.0" type="line"/>
      <point x="368.0" y="1464.0" type="line"/>
      <point x="114.0" y="1464.0" type="line"/>
    </contour>
  </outline>
</glyph>
<glyph name="uni0306" format="2">
  <unicode hex="0306"/>
  <anchor x="0" y="1024" name="_top"/>
  <anchor x="0" y="1464" name="top"/>
  <outline>
    <contour>
      <point x="0.0" y="1277.0" type="curve" smooth="yes"/>
      <point x="-125.0" y="1277.0"/>
      <point x="-178.0" y="1320.0"/>
      <point x="-211.0" y="1464.0" type="curve"/>
      <point x="-323.0" y="1464.0" type="line"/>
      <point x="-285.0" y="1205.0"/>
      <point x="-197.0" y="1133.0"/>
      <point x="0.0" y="1133.0" type="curve" smooth="yes"/>
      <point x="197.0" y="1133.0"/>
      <point x="285.0" y="1205.0"/>
      <point x="323.0" y="1464.0" type="curve"/>
      <point x="211.0" y="1464.0" type="line"/>
      <point x="178.0" y="1320.0"/>
      <point x="125.0" y="1277.0"/>
    </contour>
  </outline>
</glyph>
<glyph name="uni030A" format="2">
  <unicode hex="030A"/>
  <anchor x="0" y="1024" name="_top"/>
  <anchor x="0" y="1464" name="top"/>
  <outline>
    <contour>
      <point x="-2.0" y="1488.0" type="curve" smooth="yes"/>
      <point x="-118.0" y="1488.0"/>
      <point x="-190.0" y="1418.0"/>
      <point x="-190.0" y="1304.0" type="curve" smooth="yes"/>
      <point x="-190.0" y="1191.0"/>
      <point x="-118.0" y="1120.0"/>
      <point x="-2.0" y="1120.0" type="curve" smooth="yes"/>
      <point x="115.0" y="1120.0"/>
      <point x="186.0" y="1191.0"/>
      <point x="186.0" y="1304.0" type="curve" smooth="yes"/>
      <point x="186.0" y="1418.0"/>
      <point x="115.0" y="1488.0"/>
    </contour>
    <contour>
      <point x="-2.0" y="1186.0" type="curve" smooth="yes"/>
      <point x="-77.0" y="1186.0"/>
      <point x="-119.0" y="1230.0"/>
      <point x="-119.0" y="1304.0" type="curve" smooth="yes"/>
      <point x="-119.0" y="1380.0"/>
      <point x="-77.0" y="1424.0"/>
      <point x="-2.0" y="1424.0" type="curve" smooth="yes"/>
      <point x="73.0" y="1424.0"/>
      <point x="115.0" y="1380.0"/>
      <point x="115.0" y="1304.0" type="curve" smooth="yes"/>
      <point x="115.0" y="1230.0"/>
      <point x="73.0" y="1186.0"/>
    </contour>
  </outline>
</glyph>
<glyph name="uni030C" format="2">
  <unicode hex="030C"/>
  <anchor x="0" y="1024" name="_top"/>
  <anchor x="0" y="1464" name="top"/>
  <outline>
    <contour>
      <point x="28.0" y="1245.0" type="line"/>
      <point x="-192.0" y="1464.0" type="line"/>
      <point x="-355.0" y="1464.0" type="line"/>
      <point x="-95.0" y="1138.0" type="line"/>
      <point x="95.0" y="1138.0" type="line"/>
      <point x="355.0" y="1464.0" type="line"/>
      <point x="192.0" y="1464.0" type="line"/>
      <point x="-28.0" y="1245.0" type="line"/>
    </contour>
  </outline>
</glyph>
<glyph name="uni031B" format="2">
  <unicode hex="031B"/>
  <anchor x="0" y="1033" name="_horn"/>
  <outline>
    <contour>
      <point x="346.0" y="1196.0" type="curve" smooth="yes"/>
      <point x="346.0" y="1294.0"/>
      <point x="290.0" y="1329.0"/>
      <point x="224.0" y="1329.0" type="curve" smooth="yes"/>
      <point x="170.0" y="1329.0"/>
      <point x="124.0" y="1297.0"/>
      <point x="123.0" y="1259.0" type="curve" smooth="yes"/>
      <point x="123.0" y="1246.0"/>
      <point x="164.0" y="1204.0"/>
      <point x="164.0" y="1142.0" type="curve" smooth="yes"/>
      <point x="164.0" y="1075.0"/>
      <point x="124.0" y="1033.0"/>
      <point x="17.0" y="1033.0" type="curve" smooth="yes"/>
      <point x="-83.0" y="1033.0" type="line"/>
      <point x="-83.0" y="943.0" type="line"/>
      <point x="41.0" y="943.0" type="line" smooth="yes"/>
      <point x="238.0" y="943.0"/>
      <point x="346.0" y="1034.0"/>
    </contour>
  </outline>
</glyph>
<glyph name="uni0324" format="2">
  <unicode hex="0324"/>
  <anchor x="0" y="0" name="_bottom"/>
  <anchor x="0" y="-465" name="bottom"/>
  <outline>
    <contour>
      <point x="-225.0" y="-333.0" type="curve" smooth="yes"/>
      <point x="-139.0" y="-333.0"/>
      <point x="-96.0" y="-292.0"/>
      <point x="-96.0" y="-216.0" type="curve" smooth="yes"/>
      <point x="-96.0" y="-139.0"/>
      <point x="-139.0" y="-103.0"/>
      <point x="-225.0" y="-103.0" type="curve" smooth="yes"/>
      <point x="-310.0" y="-103.0"/>
      <point x="-354.0" y="-139.0"/>
      <point x="-354.0" y="-216.0" type="curve" smooth="yes"/>
      <point x="-354.0" y="-292.0"/>
      <point x="-310.0" y="-333.0"/>
    </contour>
    <contour>
      <point x="225.0" y="-333.0" type="curve" smooth="yes"/>
      <point x="310.0" y="-333.0"/>
      <point x="354.0" y="-292.0"/>
      <point x="354.0" y="-216.0" type="curve" smooth="yes"/>
      <point x="354.0" y="-139.0"/>
      <point x="310.0" y="-103.0"/>
      <point x="225.0" y="-103.0" type="curve" smooth="yes"/>
      <point x="139.0" y="-103.0"/>
      <point x="96.0" y="-139.0"/>
      <point x="96.0" y="-216.0" type="curve" smooth="yes"/>
      <point x="96.0" y="-292.0"/>
      <point x="139.0" y="-333.0"/>
    </contour>
  </outline>
</glyph>
<glyph name="uni0328" format="2">
  <unicode hex="0328"/>
  <anchor x="0" y="0" name="_right"/>
  <outline>
    <contour>
      <point x="-108.0" y="-79.0" type="curve" smooth="yes"/>
      <point x="-20.0" y="45.0" type="line"/>
      <point x="-102.0" y="45.0" type="line"/>
      <point x="-219.0" y="-80.0" type="line" smooth="yes"/>
      <point x="-329.0" y="-196.0"/>
      <point x="-348.0" y="-251.0"/>
      <point x="-348.0" y="-314.0" type="curve" smooth="yes"/>
      <point x="-348.0" y="-403.0"/>
      <point x="-299.0" y="-465.0"/>
      <point x="-178.0" y="-465.0" type="curve" smooth="yes"/>
      <point x="-106.0" y="-465.0"/>
      <point x="-65.0" y="-448.0"/>
      <point x="10.0" y="-389.0" type="curve"/>
      <point x="10.0" y="-319.0" type="line"/>
      <point x="-42.0" y="-346.0"/>
      <point x="-67.0" y="-351.0"/>
      <point x="-105.0" y="-351.0" type="curve" smooth="yes"/>
      <point x="-161.0" y="-351.0"/>
      <point x="-193.0" y="-319.0"/>
      <point x="-193.0" y="-262.0" type="curve" smooth="yes"/>
      <point x="-193.0" y="-214.0"/>
      <point x="-174.0" y="-172.0"/>
    </contour>
  </outline>
</glyph>
<glyph name="uni032E" format="2">
  <unicode hex="032E"/>
  <anchor x="0" y="0" name="_bottom"/>
  <anchor x="0" y="-465" name="bottom"/>
  <outline>
    <contour>
      <point x="0.0" y="-237.0" type="curve" smooth="yes"/>
      <point x="-125.0" y="-237.0"/>
      <point x="-178.0" y="-194.0"/>
      <point x="-211.0" y="-50.0" type="curve"/>
      <point x="-323.0" y="-50.0" type="line"/>
      <point x="-285.0" y="-309.0"/>
      <point x="-197.0" y="-381.0"/>
      <point x="0.0" y="-381.0" type="curve" smooth="yes"/>
      <point x="197.0" y="-381.0"/>
      <point x="285.0" y="-309.0"/>
      <point x="323.0" y="-50.0" type="curve"/>
      <point x="211.0" y="-50.0" type="line"/>
      <point x="178.0" y="-194.0"/>
      <point x="125.0" y="-237.0"/>
    </contour>
  </outline>
</glyph>
<glyph name="quoteleft" format="2">
  <advance width="570.0"/>
  <unicode hex="2018"/>
  <outline>
    <contour>
      <point x="470.0" y="1345.0" type="curve"/>
      <point x="428.0" y="1429.0" type="line"/>
      <point x="184.0" y="1325.0"/>
      <point x="109.0" y="1218.0"/>
      <point x="109.0" y="1052.0" type="curve" smooth="yes"/>
      <point x="109.0" y="947.0"/>
      <point x="170.0" y="881.0"/>
      <point x="278.0" y="881.0" type="curve" smooth="yes"/>
      <point x="376.0" y="881.0"/>
      <point x="429.0" y="940.0"/>
      <point x="429.0" y="1025.0" type="curve" smooth="yes"/>
      <point x="429.0" y="1065.0"/>
      <point x="304.0" y="1100.0"/>
      <point x="304.0" y="1183.0" type="curve" smooth="yes"/>
      <point x="304.0" y="1247.0"/>
      <point x="331.0" y="1281.0"/>
    </contour>
  </outline>
</glyph>
<glyph name="quoteright" format="2">
  <advance width="568.0"/>
  <unicode hex="2019"/>
  <outline>
    <contour>
      <point x="112.0" y="964.0" type="curve"/>
      <point x="154.0" y="880.0" type="line"/>
      <point x="398.0" y="984.0"/>
      <point x="473.0" y="1091.0"/>
      <point x="473.0" y="1257.0" type="curve" smooth="yes"/>
      <point x="473.0" y="1362.0"/>
      <point x="412.0" y="1428.0"/>
      <point x="304.0" y="1428.0" type="curve" smooth="yes"/>
      <point x="206.0" y="1428.0"/>
      <point x="153.0" y="1369.0"/>
      <point x="153.0" y="1284.0" type="curve" smooth="yes"/>
      <point x="153.0" y="1244.0"/>
      <point x="278.0" y="1209.0"/>
      <point x="278.0" y="1126.0" type="curve" smooth="yes"/>
      <point x="278.0" y="1062.0"/>
      <point x="251.0" y="1028.0"/>
    </contour>
  </outline>
</glyph>
<glyph name="minute" format="2">
  <advance width="510.0"/>
  <unicode hex="2032"/>
  <outline>
    <contour>
      <point x="129.0" y="903.0" type="line"/>
      <point x="275.0" y="903.0" type="line"/>
      <point x="424.0" y="1366.0" type="line"/>
      <point x="424.0" y="1414.0" type="line"/>
      <point x="187.0" y="1414.0" type="line"/>
    </contour>
  </outline>
</glyph>
<glyph name="guilsinglleft" format="2">
  <advance width="725.0"/>
  <unicode hex="2039"/>
  <outline>
    <contour>
      <point x="308.0" y="555.0" type="line"/>
      <point x="308.0" y="489.0" type="line"/>
      <point x="617.0" y="896.0" type="line"/>
      <point x="525.0" y="983.0" type="line"/>
      <point x="102.0" y="588.0" type="line"/>
      <point x="102.0" y="456.0" type="line"/>
      <point x="525.0" y="61.0" type="line"/>
      <point x="617.0" y="148.0" type="line"/>
    </contour>
  </outline>
</glyph>
<glyph name="zerosuperior" format="2">
  <advance width="887.0"/>
  <unicode hex="2070"/>
  <outline>
    <contour>
      <point x="445.0" y="773.0" type="curve" smooth="yes"/>
      <point x="318.0" y="773.0"/>
      <point x="257.0" y="872.0"/>
      <point x="257.0" y="1056.0" type="curve" smooth="yes"/>
      <point x="257.0" y="1218.0"/>
      <point x="320.0" y="1307.0"/>
      <point x="442.0" y="1307.0" type="curve" smooth="yes"/>
      <point x="569.0" y="1307.0"/>
      <point x="630.0" y="1208.0"/>
      <point x="630.0" y="1024.0" type="curve" smooth="yes"/>
      <point x="630.0" y="862.0"/>
      <point x="567.0" y="773.0"/>
    </contour>
    <contour>
      <point x="439.0" y="652.0" type="curve" smooth="yes"/>
      <point x="667.0" y="652.0"/>
      <point x="794.0" y="787.0"/>
      <point x="794.0" y="1043.0" type="curve" smooth="yes"/>
      <point x="794.0" y="1289.0"/>
      <point x="664.0" y="1428.0"/>
      <point x="448.0" y="1428.0" type="curve" smooth="yes"/>
      <point x="220.0" y="1428.0"/>
      <point x="93.0" y="1293.0"/>
      <point x="93.0" y="1037.0" type="curve" smooth="yes"/>
      <point x="93.0" y="791.0"/>
      <point x="223.0" y="652.0"/>
    </contour>
  </outline>
</glyph>
<glyph name="uni27E8" format="2">
  <advance width="1140.0"/>
  <unicode hex="27E8"/>
  <outline>
    <contour>
      <point x="392.5" y="678.0" type="line"/>
      <point x="949.5" y="1414.0" type="line"/>
      <point x="741.5" y="1414.0" type="line"/>
      <point x="214.5" y="730.0" type="line"/>
      <point x="214.5" y="683.0" type="line"/>
      <point x="741.5" y="0.0" type="line"/>
      <point x="949.5" y="0.0" type="line"/>
      <point x="391.5" y="737.0" type="line"/>
    </contour>
  </outline>
</glyph>
<glyph name="fi" format="2">
  <advance width="1344.0"/>
  <unicode hex="FB01"/>
  <outline>
    <contour>
      <point x="791.0" y="869.0" type="line"/>
      <point x="917.0" y="869.0" type="line"/>
      <point x="917.0" y="136.0" type="line"/>
      <point x="750.0" y="96.0" type="line"/>
      <point x="750.0" y="0.0" type="line"/>
      <point x="1273.0" y="0.0" type="line"/>
      <point x="1273.0" y="96.0" type="line"/>
      <point x="1115.0" y="136.0" type="line"/>
      <point x="1115.0" y="820.0" type="line"/>
      <point x="1129.0" y="1044.0" type="line"/>
      <point x="1071.0" y="1044.0" type="line"/>
      <point x="911.0" y="1024.0" type="line"/>
      <point x="368.0" y="1024.0" type="line"/>
      <point x="281.0" y="1048.0" type="line"/>
      <point x="71.0" y="975.0" type="line"/>
      <point x="71.0" y="911.0" type="line"/>
      <point x="265.0" y="845.0" type="line"/>
      <point x="312.0" y="869.0" type="line"/>
    </contour>
    <contour>
      <point x="463.0" y="136.0" type="line"/>
      <point x="463.0" y="1153.0" type="line" smooth="yes"/>
      <point x="463.0" y="1285.0"/>
      <point x="547.0" y="1351.0"/>
      <point x="704.0" y="1351.0" type="curve" smooth="yes"/>
      <point x="838.0" y="1351.0"/>
      <point x="920.0" y="1196.0"/>
      <point x="959.0" y="1196.0" type="curve" smooth="yes"/>
      <point x="1041.0" y="1196.0"/>
      <point x="1099.0" y="1243.0"/>
      <point x="1099.0" y="1320.0" type="curve" smooth="yes"/>
      <point x="1099.0" y="1418.0"/>
      <point x="992.0" y="1484.0"/>
      <point x="736.0" y="1484.0" type="curve" smooth="yes"/>
      <point x="446.0" y="1484.0"/>
      <point x="265.0" y="1346.0"/>
      <point x="265.0" y="1093.0" type="curve" smooth="yes"/>
      <point x="265.0" y="136.0" type="line"/>
      <point x="98.0" y="96.0" type="line"/>
      <point x="98.0" y="0.0" type="line"/>
      <point x="630.0" y="0.0" type="line"/>
      <point x="630.0" y="96.0" type="line"/>
    </contour>
  </outline>
</glyph>
<glyph name="fl" format="2">
  <advance width="1344.0"/>
  <unicode hex="FB02"/>
  <outline>
    <contour>
      <point x="463.0" y="136.0" type="line"/>
      <point x="463.0" y="1153.0" type="line" smooth="yes"/>
      <point x="463.0" y="1285.0"/>
      <point x="547.0" y="1351.0"/>
      <point x="704.0" y="1351.0" type="curve" smooth="yes"/>
      <point x="791.0" y="1351.0"/>
      <point x="861.0" y="1317.0"/>
      <point x="917.0" y="1265.0" type="curve"/>
      <point x="917.0" y="136.0" type="line"/>
      <point x="750.0" y="96.0" type="line"/>
      <point x="750.0" y="0.0" type="line"/>
      <point x="1273.0" y="0.0" type="line"/>
      <point x="1273.0" y="96.0" type="line"/>
      <point x="1115.0" y="136.0" type="line"/>
      <point x="1115.0" y="1278.0" type="line"/>
      <point x="1135.0" y="1484.0" type="line"/>
      <point x="1093.0" y="1484.0" type="line"/>
      <point x="965.0" y="1438.0" type="line"/>
      <point x="1021.0" y="1437.0" type="line"/>
      <point x="944.0" y="1466.0"/>
      <point x="861.0" y="1484.0"/>
      <point x="736.0" y="1484.0" type="curve" smooth="yes"/>
      <point x="446.0" y="1484.0"/>
      <point x="265.0" y="1346.0"/>
      <point x="265.0" y="1093.0" type="curve" smooth="yes"/>
      <point x="265.0" y="136.0" type="line"/>
      <point x="98.0" y="96.0" type="line"/>
      <point x="98.0" y="0.0" type="line"/>
      <point x="630.0" y="0.0" type="line"/>
      <point x="630.0" y="96.0" type="line"/>
    </contour>
    <contour>
      <point x="781.0" y="1024.0" type="line"/>
      <point x="368.0" y="1024.0" type="line"/>
      <point x="281.0" y="1048.0" type="line"/>
      <point x="71.0" y="975.0" type="line"/>
      <point x="71.0" y="911.0" type="line"/>
      <point x="265.0" y="845.0" type="line"/>
      <point x="312.0" y="869.0" type="line"/>
      <point x="781.0" y="869.0" type="line"/>
    </contour>
  </outline>
</glyph>
<glyph name="Euro.lf" format="2">
  <advance width="1494.0"/>
  <outline>
    <contour>
      <point x="1048.0" y="604.0" type="line"/>
      <point x="115.0" y="604.0" type="line"/>
      <point x="115.0" y="485.0" type="line"/>
      <point x="1048.0" y="485.0" type="line"/>
    </contour>
    <contour>
      <point x="1048.0" y="926.0" type="line"/>
      <point x="115.0" y="926.0" type="line"/>
      <point x="115.0" y="807.0" type="line"/>
      <point x="1048.0" y="807.0" type="line"/>
    </contour>
    <contour>
      <point x="965.0" y="1296.0" type="curve" smooth="yes"/>
      <point x="1176.0" y="1296.0"/>
      <point x="1237.0" y="1143.0"/>
      <point x="1269.0" y="1143.0" type="curve" smooth="yes"/>
      <point x="1329.0" y="1143.0"/>
      <point x="1380.0" y="1198.0"/>
      <point x="1380.0" y="1260.0" type="curve" smooth="yes"/>
      <point x="1380.0" y="1350.0"/>
      <point x="1269.0" y="1434.0"/>
      <point x="990.0" y="1434.0" type="curve" smooth="yes"/>
      <point x="567.0" y="1434.0"/>
      <point x="340.0" y="1174.0"/>
      <point x="340.0" y="705.0" type="curve" smooth="yes"/>
      <point x="340.0" y="188.0"/>
      <point x="537.0" y="-20.0"/>
      <point x="966.0" y="-20.0" type="curve" smooth="yes"/>
      <point x="1224.0" y="-20.0"/>
      <point x="1380.0" y="75.0"/>
      <point x="1380.0" y="166.0" type="curve" smooth="yes"/>
      <point x="1380.0" y="222.0"/>
      <point x="1331.0" y="271.0"/>
      <point x="1273.0" y="271.0" type="curve" smooth="yes"/>
      <point x="1241.0" y="271.0"/>
      <point x="1166.0" y="118.0"/>
      <point x="965.0" y="118.0" type="curve" smooth="yes"/>
      <point x="682.0" y="118.0"/>
      <point x="556.0" y="270.0"/>
      <point x="556.0" y="696.0" type="curve" smooth="yes"/>
      <point x="556.0" y="1135.0"/>
      <point x="690.0" y="1296.0"/>
    </contour>
  </outline>
</glyph>
<glyph name="caroncomb.alt" format="2">
  <anchor x="0" y="1464" name="_right"/>
  <outline>
    <contour>
      <point x="143.0" y="1063.0" type="line"/>
      <point x="256.0" y="1063.0" type="line"/>
      <point x="423.0" y="1426.0" type="line"/>
      <point x="423.0" y="1464.0" type="line"/>
      <point x="201.0" y="1464.0" type="line"/>
    </contour>
  </outline>
</glyph>
<glyph name="cent.lf" format="2">
  <advance width="1145.0"/>
  <outline>
    <contour>
      <point x="296.0" y="0.0" type="line"/>
      <point x="418.0" y="0.0" type="line"/>
      <point x="897.0" y="1414.0" type="line"/>
      <point x="775.0" y="1414.0" type="line"/>
    </contour>
    <contour>
      <point x="704.0" y="1240.0" type="curve" smooth="yes"/>
      <point x="347.0" y="1240.0"/>
      <point x="126.0" y="1048.0"/>
      <point x="126.0" y="694.0" type="curve" smooth="yes"/>
      <point x="126.0" y="358.0"/>
      <point x="326.0" y="176.0"/>
      <point x="620.0" y="176.0" type="curve" smooth="yes"/>
      <point x="739.0" y="176.0"/>
      <point x="888.0" y="232.0"/>
      <point x="1018.0" y="320.0" type="curve"/>
      <point x="1018.0" y="426.0" type="line"/>
      <point x="899.0" y="376.0"/>
      <point x="790.0" y="350.0"/>
      <point x="689.0" y="350.0" type="curve" smooth="yes"/>
      <point x="450.0" y="350.0"/>
      <point x="322.0" y="483.0"/>
      <point x="322.0" y="748.0" type="curve" smooth="yes"/>
      <point x="322.0" y="980.0"/>
      <point x="435.0" y="1097.0"/>
      <point x="621.0" y="1097.0" type="curve" smooth="yes"/>
      <point x="687.0" y="1097.0"/>
      <point x="867.0" y="929.0"/>
      <point x="892.0" y="929.0" type="curve" smooth="yes"/>
      <point x="972.0" y="929.0"/>
      <point x="1026.0" y="995.0"/>
      <point x="1026.0" y="1070.0" type="curve" smooth="yes"/>
      <point x="1026.0" y="1143.0"/>
      <point x="954.0" y="1240.0"/>
    </contour>
  </outline>
</glyph>
<glyph name="colonmonetary.lf.1" format="2">
  <advance width="1225.0"/>
  <outline>
    <contour>
      <point x="713.0" y="1296.0" type="curve" smooth="yes"/>
      <point x="924.0" y="1296.0"/>
      <point x="985.0" y="1143.0"/>
      <point x="1017.0" y="1143.0" type="curve" smooth="yes"/>
      <point x="1077.0" y="1143.0"/>
      <point x="1128.0" y="1198.0"/>
      <point x="1128.0" y="1260.0" type="curve" smooth="yes"/>
      <point x="1128.0" y="1350.0"/>
      <point x="1017.0" y="1434.0"/>
      <point x="738.0" y="1434.0" type="curve" smooth="yes"/>
      <point x="327.0" y="1433.0"/>
      <point x="125.0" y="1135.0"/>
      <point x="125.0" y="690.0" type="curve" smooth="yes"/>
      <point x="125.0" y="212.0"/>
      <point x="310.0" y="-20.0"/>
      <point x="643.0" y="-20.0" type="curve" smooth="yes"/>
      <point x="813.0" y="-20.0"/>
      <point x="924.0" y="12.0"/>
      <point x="1095.0" y="108.0" type="curve"/>
      <point x="1095.0" y="232.0" type="line"/>
      <point x="948.0" y="167.0"/>
      <point x="866.0" y="151.0"/>
      <point x="748.0" y="151.0" type="curve" smooth="yes"/>
      <point x="465.0" y="151.0"/>
      <point x="339.0" y="318.0"/>
      <point x="339.0" y="724.0" type="curve" smooth="yes"/>
      <point x="339.0" y="1128.0"/>
      <point x="473.0" y="1296.0"/>
    </contour>
    <contour>
      <point x="725.0" y="1353.0" type="line"/>
      <point x="788.0" y="1631.0" type="line"/>
      <point x="670.0" y="1631.0" type="line"/>
      <point x="607.0" y="1353.0" type="line"/>
    </contour>
    <contour>
      <point x="332.0" y="145.0" type="line"/>
      <point x="250.0" y="-217.0" type="line"/>
      <point x="368.0" y="-217.0" type="line"/>
      <point x="450.0" y="145.0" type="line"/>
    </contour>
    <contour>
      <point x="985.0" y="1353.0" type="line"/>
      <point x="1048.0" y="1631.0" type="line"/>
      <point x="931.0" y="1631.0" type="line"/>
      <point x="868.0" y="1353.0" type="line"/>
    </contour>
    <contour>
      <point x="579.0" y="83.0" type="line"/>
      <point x="511.0" y="-217.0" type="line"/>
      <point x="629.0" y="-217.0" type="line"/>
      <point x="697.0" y="83.0" type="line"/>
    </contour>
  </outline>
</glyph>
<glyph name="dollar.lf.1" format="2">
  <advance width="1174.0"/>
  <outline>
    <contour>
      <point x="483.0" y="-20.0" type="curve" smooth="yes"/>
      <point x="869.0" y="-20.0"/>
      <point x="1069.0" y="130.9706546275395"/>
      <point x="1069.0" y="420.0" type="curve" smooth="yes"/>
      <point x="1069.0" y="620.0"/>
      <point x="980.0" y="754.0"/>
      <point x="672.0" y="816.0" type="curve" smooth="yes"/>
      <point x="363.0" y="878.0"/>
      <point x="313.0" y="958.0"/>
      <point x="313.0" y="1084.0" type="curve" smooth="yes"/>
      <point x="313.0" y="1231.1297071129707"/>
      <point x="422.0" y="1308.0"/>
      <point x="636.0" y="1308.0" type="curve" smooth="yes"/>
      <point x="783.0" y="1308.0"/>
      <point x="916.0" y="1138.0"/>
      <point x="945.0" y="1138.0" type="curve" smooth="yes"/>
      <point x="1004.0" y="1138.0"/>
      <point x="1056.0" y="1191.0"/>
      <point x="1056.0" y="1254.0" type="curve" smooth="yes"/>
      <point x="1056.0" y="1379.0"/>
      <point x="903.0" y="1434.0"/>
      <point x="660.0" y="1434.0" type="curve" smooth="yes"/>
      <point x="312.0" y="1434.0"/>
      <point x="124.0" y="1282.1561712846349"/>
      <point x="124.0" y="1040.0" type="curve" smooth="yes"/>
      <point x="124.0" y="847.0"/>
      <point x="208.0" y="713.0"/>
      <point x="518.0" y="650.0" type="curve" smooth="yes"/>
      <point x="830.0" y="588.0"/>
      <point x="876.0" y="501.0"/>
      <point x="876.0" y="372.0" type="curve" smooth="yes"/>
      <point x="876.0" y="202.23487544483987"/>
      <point x="741.0" y="106.0"/>
      <point x="507.0" y="106.0" type="curve" smooth="yes"/>
      <point x="360.0" y="106.0"/>
      <point x="227.0" y="276.0"/>
      <point x="198.0" y="276.0" type="curve" smooth="yes"/>
      <point x="139.0" y="276.0"/>
      <point x="87.0" y="223.0"/>
      <point x="87.0" y="160.0" type="curve" smooth="yes"/>
      <point x="87.0" y="35.0"/>
      <point x="240.0" y="-20.0"/>
    </contour>
    <contour>
      <point x="529.0" y="1352.0" type="line"/>
      <point x="529.0" y="1622.0" type="line"/>
      <point x="411.0" y="1622.0" type="line"/>
      <point x="411.0" y="1352.0" type="line"/>
    </contour>
    <contour>
      <point x="779.0" y="1352.0" type="line"/>
      <point x="779.0" y="1622.0" type="line"/>
      <point x="661.0" y="1622.0" type="line"/>
      <point x="661.0" y="1352.0" type="line"/>
    </contour>
    <contour>
      <point x="411.0" y="53.0" type="line"/>
      <point x="411.0" y="-208.0" type="line"/>
      <point x="529.0" y="-208.0" type="line"/>
      <point x="529.0" y="53.0" type="line"/>
    </contour>
    <contour>
      <point x="661.0" y="53.0" type="line"/>
      <point x="661.0" y="-208.0" type="line"/>
      <point x="779.0" y="-208.0" type="line"/>
      <point x="779.0" y="53.0" type="line"/>
    </contour>
  </outline>
</glyph>
<glyph name="eight.lf" format="2">
  <advance width="1281.0"/>
  <outline>
    <contour>
      <point x="1121.0" y="1293.0"/>
      <point x="1003.0" y="1434.0"/>
      <point x="674.0" y="1434.0" type="curve" smooth="yes"/>
      <point x="342.0" y="1434.0"/>
      <point x="176.0" y="1258.0"/>
      <point x="176.0" y="1047.0" type="curve" smooth="yes"/>
      <point x="176.0" y="500.0"/>
      <point x="947.0" y="739.0"/>
      <point x="947.0" y="376.0" type="curve" smooth="yes"/>
      <point x="947.0" y="218.0"/>
      <point x="862.0" y="121.0"/>
      <point x="642.0" y="121.0" type="curve" smooth="yes"/>
      <point x="440.0" y="121.0"/>
      <point x="318.0" y="220.0"/>
      <point x="318.0" y="391.0" type="curve" smooth="yes"/>
      <point x="318.0" y="551.0126577208295"/>
      <point x="389.03821195877333" y="640.4810542320928"/>
      <point x="626.0" y="682.0" type="curve"/>
      <point x="587.0" y="701.0" type="line"/>
      <point x="280.0" y="705.0"/>
      <point x="118.0" y="561.0"/>
      <point x="118.0" y="354.0" type="curve" smooth="yes"/>
      <point x="118.0" y="127.0"/>
      <point x="279.0" y="-20.0"/>
      <point x="636.0" y="-20.0" type="curve" smooth="yes"/>
      <point x="974.0" y="-20.0"/>
      <point x="1153.0" y="137.0"/>
      <point x="1153.0" y="402.0" type="curve" smooth="yes"/>
      <point x="1153.0" y="959.0"/>
      <point x="380.0" y="683.0"/>
      <point x="380.0" y="1071.0" type="curve" smooth="yes"/>
      <point x="380.0" y="1200.0"/>
      <point x="477.0" y="1289.0"/>
      <point x="665.0" y="1289.0" type="curve" smooth="yes"/>
      <point x="864.0" y="1289.0"/>
      <point x="927.0" y="1201.0"/>
      <point x="927.0" y="1078.0" type="curve" smooth="yes"/>
      <point x="927.0" y="927.0"/>
      <point x="847.0" y="836.0"/>
      <point x="629.0" y="785.0" type="curve"/>
      <point x="672.0" y="771.0" type="line"/>
      <point x="987.0" y="771.0"/>
      <point x="1121.0" y="902.0"/>
      <point x="1121.0" y="1097.0" type="curve" smooth="yes"/>
    </contour>
  </outline>
</glyph>
<glyph name="one.lf" format="2">
  <advance width="944.0"/>
  <guideline x="1097.0" y="96" angle="0" identifier="bK7HdXxQAf"/>
  <outline>
    <contour>
      <point x="429.0" y="153.0" type="line"/>
      <point x="172.0" y="99.0" type="line"/>
      <point x="172.0" y="0.0" type="line"/>
      <point x="879.0" y="0.0" type="line"/>
      <point x="879.0" y="99.0" type="line"/>
      <point x="637.0" y="153.0" type="line"/>
      <point x="637.0" y="1434.0" type="line"/>
      <point x="487.0" y="1434.0" type="line"/>
      <point x="55.0" y="1242.0" type="line"/>
      <point x="101.0" y="1096.0" type="line"/>
      <point x="489.0" y="1221.0" type="line"/>
      <point x="429.0" y="1317.0" type="line"/>
    </contour>
  </outline>
</glyph>
<glyph name="peseta.lf" format="2">
  <advance width="1882.0"/>
  <outline>
    <contour>
      <point x="460.0" y="130.0" type="line"/>
      <point x="460.0" y="1414.0" type="line"/>
      <point x="168.0" y="1414.0" type="line"/>
      <point x="168.0" y="1314.0" type="line"/>
      <point x="296.0" y="1284.0" type="line"/>
      <point x="296.0" y="130.0" type="line"/>
      <point x="168.0" y="100.0" type="line"/>
      <point x="168.0" y="0.0" type="line"/>
      <point x="599.0" y="0.0" type="line"/>
      <point x="599.0" y="100.0" type="line"/>
    </contour>
    <contour>
      <point x="996.0" y="217.0" type="line" smooth="yes"/>
      <point x="996.0" y="30.0"/>
      <point x="1053.0" y="-13.0"/>
      <point x="1159.0" y="-13.0" type="curve" smooth="yes"/>
      <point x="1219.0" y="-13.0"/>
      <point x="1267.0" y="-2.0"/>
      <point x="1323.0" y="30.0" type="curve"/>
      <point x="1323.0" y="142.0" type="line"/>
      <point x="1289.0" y="124.0"/>
      <point x="1261.0" y="118.0"/>
      <point x="1232.0" y="118.0" type="curve" smooth="yes"/>
      <point x="1174.0" y="118.0"/>
      <point x="1153.0" y="149.0"/>
      <point x="1153.0" y="239.0" type="curve" smooth="yes"/>
      <point x="1153.0" y="1102.0" type="line"/>
      <point x="1080.0" y="1102.0" type="line"/>
      <point x="1039.0" y="932.0"/>
      <point x="1017.0" y="912.0"/>
      <point x="926.0" y="870.0" type="curve"/>
      <point x="926.0" y="797.0" type="line"/>
      <point x="996.0" y="797.0" type="line"/>
    </contour>
    <contour>
      <point x="1087.0" y="797.0" type="line"/>
      <point x="1302.0" y="797.0" type="line"/>
      <point x="1305.0" y="924.0" type="line"/>
      <point x="1070.0" y="924.0" type="line"/>
    </contour>
    <contour>
      <point x="1593.0" y="964.0" type="curve" smooth="yes"/>
      <point x="1456.0" y="964.0"/>
      <point x="1372.0" y="876.0"/>
      <point x="1372.0" y="706.0" type="curve" smooth="yes"/>
      <point x="1372.0" y="393.0"/>
      <point x="1624.0" y="436.0"/>
      <point x="1624.0" y="222.0" type="curve" smooth="yes"/>
      <point x="1624.0" y="131.0"/>
      <point x="1586.0" y="89.0"/>
      <point x="1502.0" y="89.0" type="curve" smooth="yes"/>
      <point x="1472.0" y="89.0"/>
      <point x="1445.0" y="93.0"/>
      <point x="1425.0" y="104.0" type="curve"/>
      <point x="1512.0" y="25.0" type="line"/>
      <point x="1444.0" y="271.0" type="line"/>
      <point x="1364.0" y="271.0" type="line"/>
      <point x="1390.0" y="5.0" type="line"/>
      <point x="1434.0" y="-11.0"/>
      <point x="1480.0" y="-18.0"/>
      <point x="1531.0" y="-18.0" type="curve" smooth="yes"/>
      <point x="1676.0" y="-18.0"/>
      <point x="1759.0" y="68.0"/>
      <point x="1759.0" y="251.0" type="curve" smooth="yes"/>
      <point x="1759.0" y="589.0"/>
      <point x="1503.0" y="538.0"/>
      <point x="1503.0" y="746.0" type="curve" smooth="yes"/>
      <point x="1503.0" y="818.0"/>
      <point x="1536.0" y="859.0"/>
      <point x="1603.0" y="859.0" type="curve" smooth="yes"/>
      <point x="1626.0" y="859.0"/>
      <point x="1652.0" y="852.0"/>
      <point x="1674.0" y="841.0" type="curve"/>
      <point x="1600.0" y="924.0" type="line"/>
      <point x="1653.0" y="700.0" type="line"/>
      <point x="1731.0" y="700.0" type="line"/>
      <point x="1715.0" y="946.0" type="line"/>
      <point x="1680.0" y="958.0"/>
      <point x="1643.0" y="964.0"/>
    </contour>
    <contour>
      <point x="527.0" y="1263.0" type="line" smooth="yes"/>
      <point x="686.0" y="1263.0"/>
      <point x="724.0" y="1179.0"/>
      <point x="724.0" y="999.0" type="curve" smooth="yes"/>
      <point x="724.0" y="804.0"/>
      <point x="675.0" y="723.0"/>
      <point x="557.0" y="723.0" type="curve" smooth="yes"/>
      <point x="399.0" y="723.0" type="line"/>
      <point x="363.0" y="579.0" type="line"/>
      <point x="594.0" y="579.0" type="line" smooth="yes"/>
      <point x="796.0" y="579.0"/>
      <point x="889.0" y="721.0"/>
      <point x="889.0" y="996.0" type="curve" smooth="yes"/>
      <point x="889.0" y="1273.0"/>
      <point x="800.0" y="1414.0"/>
      <point x="557.0" y="1414.0" type="curve" smooth="yes"/>
      <point x="368.0" y="1414.0" type="line"/>
      <point x="396.0" y="1263.0" type="line"/>
    </contour>
  </outline>
</glyph>
<glyph name="uni0302.case" format="2">
  <anchor x="0" y="1414.0" name="_UCtop"/>
  <anchor x="0" y="1870.0" name="UCtop"/>
  <outline>
    <contour>
      <point x="-28.0" y="1763.0" type="line"/>
      <point x="192.0" y="1544.0" type="line"/>
      <point x="355.0" y="1544.0" type="line"/>
      <point x="95.0" y="1870.0" type="line"/>
      <point x="-95.0" y="1870.0" type="line"/>
      <point x="-355.0" y="1544.0" type="line"/>
      <point x="-192.0" y="1544.0" type="line"/>
      <point x="28.0" y="1763.0" type="line"/>
    </contour>
  </outline>
</glyph>
<glyph name="uni0302_acutecomb.case" format="2">
  <anchor x="0" y="1414.0" name="_UCtop"/>
  <anchor x="0" y="1870.0" name="UCtop"/>
  <outline>
    <contour>
      <point x="297.0" y="1741.0" type="line"/>
      <point x="414.0" y="1741.0" type="line"/>
      <point x="672.0" y="1969.0" type="line"/>
      <point x="672.0" y="2008.0" type="line"/>
      <point x="432.0" y="2008.0" type="line"/>
    </contour>
    <contour>
      <point x="-28.0" y="1763.0" type="line"/>
      <point x="192.0" y="1544.0" type="line"/>
      <point x="355.0" y="1544.0" type="line"/>
      <point x="95.0" y="1870.0" type="line"/>
      <point x="-95.0" y="1870.0" type="line"/>
      <point x="-355.0" y="1544.0" type="line"/>
      <point x="-192.0" y="1544.0" type="line"/>
      <point x="28.0" y="1763.0" type="line"/>
    </contour>
  </outline>
</glyph>
<glyph name="uni0304.case" format="2">
  <anchor x="0" y="1414.0" name="_UCtop"/>
  <anchor x="0" y="1870.0" name="UCtop"/>
  <outline>
    <contour>
      <point x="-309.0" y="1642.0" type="line"/>
      <point x="309.0" y="1642.0" type="line"/>
      <point x="309.0" y="1773.0" type="line"/>
      <point x="-309.0" y="1773.0" type="line"/>
    </contour>
  </outline>
</glyph>
<glyph name="uni0306_acutecomb" format="2">
  <anchor x="0" y="1024" name="_top"/>
  <outline>
    <contour>
      <point x="-38.0" y="1315.0" type="line"/>
      <point x="57.0" y="1315.0" type="line"/>
      <point x="305.0" y="1570.0" type="line"/>
      <point x="305.0" y="1598.0" type="line"/>
      <point x="105.0" y="1598.0" type="line"/>
    </contour>
    <contour>
      <point x="0.0" y="1209.0" type="curve" smooth="yes"/>
      <point x="-123.0" y="1209.0"/>
      <point x="-174.0" y="1247.0"/>
      <point x="-199.0" y="1336.0" type="curve"/>
      <point x="-308.0" y="1336.0" type="line"/>
      <point x="-270.0" y="1141.0"/>
      <point x="-180.0" y="1097.0"/>
      <point x="0.0" y="1097.0" type="curve" smooth="yes"/>
      <point x="180.0" y="1097.0"/>
      <point x="270.0" y="1141.0"/>
      <point x="308.0" y="1336.0" type="curve"/>
      <point x="199.0" y="1336.0" type="line"/>
      <point x="174.0" y="1247.0"/>
      <point x="123.0" y="1209.0"/>
    </contour>
  </outline>
</glyph>
<glyph name="uni0306_hookabovecomb.case" format="2">
  <anchor x="0" y="1414.0" name="_UCtop"/>
  <outline>
    <contour>
      <point x="0.0" y="1615.0" type="curve" smooth="yes"/>
      <point x="-123.0" y="1615.0"/>
      <point x="-174.0" y="1653.0"/>
      <point x="-199.0" y="1742.0" type="curve"/>
      <point x="-308.0" y="1742.0" type="line"/>
      <point x="-270.0" y="1547.0"/>
      <point x="-180.0" y="1503.0"/>
      <point x="0.0" y="1503.0" type="curve" smooth="yes"/>
      <point x="180.0" y="1503.0"/>
      <point x="270.0" y="1547.0"/>
      <point x="308.0" y="1742.0" type="curve"/>
      <point x="199.0" y="1742.0" type="line"/>
      <point x="174.0" y="1653.0"/>
      <point x="123.0" y="1615.0"/>
    </contour>
    <contour>
      <point x="-38.0" y="1792.0" type="curve"/>
      <point x="-21.0" y="1719.0" type="line"/>
      <point x="152.0" y="1752.0"/>
      <point x="213.0" y="1801.0"/>
      <point x="213.0" y="1901.0" type="curve" smooth="yes"/>
      <point x="213.0" y="1992.0"/>
      <point x="146.0" y="2049.0"/>
      <point x="-98.0" y="2057.0" type="curve"/>
      <point x="-110.0" y="1940.0" type="line"/>
      <point x="77.0" y="1937.0"/>
      <point x="105.0" y="1916.0"/>
      <point x="105.0" y="1875.0" type="curve" smooth="yes"/>
      <point x="105.0" y="1841.0"/>
      <point x="83.0" y="1818.0"/>
    </contour>
  </outline>
</glyph>
<glyph name="uni0306_hookabovecomb" format="2">
  <anchor x="0" y="1024" name="_top"/>
  <outline>
    <contour>
      <point x="-21.0" y="1313.0" type="line"/>
      <point x="152.0" y="1346.0"/>
      <point x="213.0" y="1395.0"/>
      <point x="213.0" y="1495.0" type="curve" smooth="yes"/>
      <point x="213.0" y="1586.0"/>
      <point x="146.0" y="1643.0"/>
      <point x="-98.0" y="1651.0" type="curve"/>
      <point x="-110.0" y="1534.0" type="line"/>
      <point x="77.0" y="1531.0"/>
      <point x="105.0" y="1510.0"/>
      <point x="105.0" y="1469.0" type="curve" smooth="yes"/>
      <point x="105.0" y="1435.0"/>
      <point x="83.0" y="1412.0"/>
      <point x="-38.0" y="1386.0" type="curve"/>
    </contour>
    <contour>
      <point x="0.0" y="1209.0" type="curve" smooth="yes"/>
      <point x="-123.0" y="1209.0"/>
      <point x="-174.0" y="1247.0"/>
      <point x="-199.0" y="1336.0" type="curve"/>
      <point x="-308.0" y="1336.0" type="line"/>
      <point x="-270.0" y="1141.0"/>
      <point x="-180.0" y="1097.0"/>
      <point x="0.0" y="1097.0" type="curve" smooth="yes"/>
      <point x="180.0" y="1097.0"/>
      <point x="270.0" y="1141.0"/>
      <point x="308.0" y="1336.0" type="curve"/>
      <point x="199.0" y="1336.0" type="line"/>
      <point x="174.0" y="1247.0"/>
      <point x="123.0" y="1209.0"/>
    </contour>
  </outline>
</glyph>
<glyph name="uni0307.case" format="2">
  <anchor x="0" y="1414.0" name="_UCtop"/>
  <anchor x="0" y="1793.0" name="UCtop"/>
  <anchor x="0" y="1707.0" name="_mid"/>
  <outline>
    <contour>
      <point x="0.0" y="1588.0" type="curve" smooth="yes"/>
      <point x="100.0" y="1588.0"/>
      <point x="150.0" y="1630.0"/>
      <point x="150.0" y="1709.0" type="curve" smooth="yes"/>
      <point x="150.0" y="1789.0"/>
      <point x="100.0" y="1826.0"/>
      <point x="0.0" y="1826.0" type="curve" smooth="yes"/>
      <point x="-100.0" y="1826.0"/>
      <point x="-150.0" y="1789.0"/>
      <point x="-150.0" y="1709.0" type="curve" smooth="yes"/>
      <point x="-150.0" y="1630.0"/>
      <point x="-100.0" y="1588.0"/>
    </contour>
  </outline>
</glyph>
<glyph name="uni20AD.lf" format="2">
  <advance width="1516"/>
  <outline>
    <contour>
      <point x="646.0" y="730.0" type="line"/>
      <point x="1098.0" y="0.0" type="line"/>
      <point x="1450.0" y="0.0" type="line"/>
      <point x="1450.0" y="99.0" type="line"/>
      <point x="1271.0" y="129.0" type="line"/>
      <point x="818.0" y="816.0" type="line"/>
      <point x="833.0" y="681.0" type="line"/>
      <point x="1202.0" y="1288.0" type="line"/>
      <point x="1369.0" y="1315.0" type="line"/>
      <point x="1369.0" y="1414.0" type="line"/>
      <point x="904.0" y="1414.0" type="line"/>
      <point x="904.0" y="1315.0" type="line"/>
      <point x="1065.0" y="1295.0" type="line"/>
      <point x="727.0" y="730.0" type="line"/>
    </contour>
    <contour>
      <point x="1230.0" y="781.0" type="line"/>
      <point x="134.0" y="781.0" type="line"/>
      <point x="134.0" y="662.0" type="line"/>
      <point x="1230.0" y="662.0" type="line"/>
    </contour>
    <contour>
      <point x="556.0" y="1267.0" type="line"/>
      <point x="758.0" y="1315.0" type="line"/>
      <point x="758.0" y="1414.0" type="line"/>
      <point x="142.0" y="1414.0" type="line"/>
      <point x="142.0" y="1315.0" type="line"/>
      <point x="348.0" y="1263.0" type="line"/>
      <point x="348.0" y="147.0" type="line"/>
      <point x="142.0" y="99.0" type="line"/>
      <point x="142.0" y="0.0" type="line"/>
      <point x="758.0" y="0.0" type="line"/>
      <point x="758.0" y="99.0" type="line"/>
      <point x="556.0" y="147.0" type="line"/>
    </contour>
  </outline>
</glyph>
<glyph name="uni20B1.lf.1" format="2">
  <advance width="1522"/>
  <outline>
    <contour>
      <point x="382.0" y="1267.0" type="line"/>
      <point x="382.0" y="147.0" type="line"/>
      <point x="156.0" y="99.0" type="line"/>
      <point x="156.0" y="0.0" type="line"/>
      <point x="812.0" y="0.0" type="line"/>
      <point x="812.0" y="99.0" type="line"/>
      <point x="590.0" y="147.0" type="line"/>
      <point x="590.0" y="1414.0" type="line"/>
      <point x="156.0" y="1414.0" type="line"/>
      <point x="156.0" y="1315.0" type="line"/>
    </contour>
    <contour>
      <point x="485.0" y="1414.0" type="line"/>
      <point x="515.0" y="1273.0" type="line"/>
      <point x="659.0" y="1273.0" type="line" smooth="yes"/>
      <point x="960.0" y="1273.0"/>
      <point x="1025.0" y="1162.0"/>
      <point x="1025.0" y="946.0" type="curve" smooth="yes"/>
      <point x="1025.0" y="705.0"/>
      <point x="939.0" y="604.0"/>
      <point x="741.0" y="604.0" type="curve" smooth="yes"/>
      <point x="523.0" y="604.0" type="line"/>
      <point x="485.0" y="463.0" type="line"/>
      <point x="778.0" y="463.0" type="line" smooth="yes"/>
      <point x="1099.0" y="463.0"/>
      <point x="1230.0" y="625.0"/>
      <point x="1230.0" y="941.0" type="curve" smooth="yes"/>
      <point x="1230.0" y="1254.0"/>
      <point x="1111.0" y="1414.0"/>
      <point x="707.0" y="1414.0" type="curve" smooth="yes"/>
    </contour>
    <contour>
      <point x="509.0" y="1159.0" type="line"/>
      <point x="156.0" y="1159.0" type="line"/>
      <point x="156.0" y="1040.0" type="line"/>
      <point x="509.0" y="1040.0" type="line"/>
    </contour>
    <contour>
      <point x="509.0" y="837.0" type="line"/>
      <point x="156.0" y="837.0" type="line"/>
      <point x="156.0" y="718.0" type="line"/>
      <point x="509.0" y="718.0" type="line"/>
    </contour>
    <contour>
      <point x="1121.0" y="1040.0" type="line"/>
      <point x="1408.0" y="1040.0" type="line"/>
      <point x="1408.0" y="1159.0" type="line"/>
      <point x="1121.0" y="1159.0" type="line"/>
    </contour>
    <contour>
      <point x="1121.0" y="718.0" type="line"/>
      <point x="1408.0" y="718.0" type="line"/>
      <point x="1408.0" y="837.0" type="line"/>
      <point x="1121.0" y="837.0" type="line"/>
    </contour>
  </outline>
</glyph>
<glyph name="uni20B2.lf" format="2">
  <advance width="1345"/>
  <outline>
    <contour>
      <point x="618.0" y="-208.0" type="line"/>
      <point x="736.0" y="-208.0" type="line"/>
      <point x="736.0" y="1622.0" type="line"/>
      <point x="618.0" y="1622.0" type="line"/>
    </contour>
    <contour>
      <point x="736.0" y="1296.0" type="curve" smooth="yes"/>
      <point x="955.0" y="1296.0"/>
      <point x="1018.0" y="1143.0"/>
      <point x="1052.0" y="1143.0" type="curve" smooth="yes"/>
      <point x="1114.0" y="1143.0"/>
      <point x="1167.0" y="1198.0"/>
      <point x="1167.0" y="1260.0" type="curve" smooth="yes"/>
      <point x="1167.0" y="1350.0"/>
      <point x="1052.0" y="1434.0"/>
      <point x="762.0" y="1434.0" type="curve" smooth="yes"/>
      <point x="335.0" y="1433.0"/>
      <point x="125.0" y="1135.0"/>
      <point x="125.0" y="690.0" type="curve" smooth="yes"/>
      <point x="125.0" y="213.0"/>
      <point x="305.0" y="-20.0"/>
      <point x="732.0" y="-20.0" type="curve" smooth="yes"/>
      <point x="901.0" y="-20.0"/>
      <point x="1046.0" y="11.0"/>
      <point x="1202.0" y="92.0" type="curve"/>
      <point x="1202.0" y="154.0" type="line"/>
      <point x="1100.0" y="154.0" type="line"/>
      <point x="1100.0" y="541.0" type="line"/>
      <point x="1227.0" y="584.0" type="line"/>
      <point x="1227.0" y="673.0" type="line"/>
      <point x="798.0" y="673.0" type="line"/>
      <point x="798.0" y="584.0" type="line"/>
      <point x="892.0" y="541.0" type="line"/>
      <point x="892.0" y="51.0" type="line"/>
      <point x="1044.0" y="182.0" type="line"/>
      <point x="914.0" y="124.0"/>
      <point x="844.0" y="109.0"/>
      <point x="748.0" y="109.0" type="curve" smooth="yes"/>
      <point x="483.0" y="109.0"/>
      <point x="339.0" y="281.0"/>
      <point x="339.0" y="724.0" type="curve" smooth="yes"/>
      <point x="339.0" y="1128.0"/>
      <point x="487.0" y="1296.0"/>
    </contour>
  </outline>
</glyph>
<glyph name="uni20B9.lf" format="2">
  <advance width="1260"/>
  <outline>
    <contour>
      <point x="1138.0" y="1079.0" type="line"/>
      <point x="124.0" y="1079.0" type="line"/>
      <point x="124.0" y="960.0" type="line"/>
      <point x="1138.0" y="960.0" type="line"/>
    </contour>
    <contour>
      <point x="493.0" y="622.0" type="line" smooth="yes"/>
      <point x="622.0" y="622.0"/>
      <point x="655.0" y="591.0"/>
      <point x="684.0" y="458.0" type="curve" smooth="yes"/>
      <point x="746.0" y="178.0" type="line" smooth="yes"/>
      <point x="785.0" y="3.0"/>
      <point x="845.0" y="-23.0"/>
      <point x="1121.0" y="0.0" type="curve"/>
      <point x="1121.0" y="118.0" type="line"/>
      <point x="992.0" y="111.0"/>
      <point x="973.0" y="130.0"/>
      <point x="946.0" y="240.0" type="curve" smooth="yes"/>
      <point x="885.0" y="492.0" type="line" smooth="yes"/>
      <point x="849.0" y="640.0"/>
      <point x="798.0" y="697.0"/>
      <point x="610.0" y="704.0" type="curve"/>
      <point x="610.0" y="693.0" type="line"/>
      <point x="826.0" y="725.0"/>
      <point x="921.0" y="860.0"/>
      <point x="921.0" y="1031.0" type="curve" smooth="yes"/>
      <point x="921.0" y="1231.0"/>
      <point x="815.0" y="1335.0"/>
      <point x="452.0" y="1335.0" type="curve" smooth="yes"/>
      <point x="287.0" y="1335.0" type="line"/>
      <point x="287.0" y="1414.0" type="line"/>
      <point x="124.0" y="1414.0" type="line"/>
      <point x="124.0" y="1273.0" type="line"/>
      <point x="419.0" y="1273.0" type="line" smooth="yes"/>
      <point x="674.0" y="1273.0"/>
      <point x="730.0" y="1191.0"/>
      <point x="730.0" y="1019.0" type="curve" smooth="yes"/>
      <point x="730.0" y="840.0"/>
      <point x="643.0" y="763.0"/>
      <point x="478.0" y="763.0" type="curve" smooth="yes"/>
      <point x="124.0" y="763.0" type="line"/>
      <point x="124.0" y="622.0" type="line"/>
    </contour>
    <contour>
      <point x="1138.0" y="1414.0" type="line"/>
      <point x="124.0" y="1414.0" type="line"/>
      <point x="124.0" y="1295.0" type="line"/>
      <point x="1138.0" y="1295.0" type="line"/>
    </contour>
  </outline>
</glyph>
<glyph name="uni20BC.lf" format="2">
  <advance width="1263.0"/>
  <outline>
    <contour>
      <point x="632.0" y="1014.0" type="curve" smooth="yes"/>
      <point x="835.0" y="1014.0"/>
      <point x="926.0" y="860.0"/>
      <point x="951.0" y="0.0" type="curve"/>
      <point x="1151.0" y="0.0" type="line"/>
      <point x="1108.0" y="973.0"/>
      <point x="923.0" y="1147.0"/>
      <point x="632.0" y="1147.0" type="curve" smooth="yes"/>
      <point x="342.0" y="1147.0"/>
      <point x="155.0" y="973.0"/>
      <point x="112.0" y="0.0" type="curve"/>
      <point x="313.0" y="0.0" type="line"/>
      <point x="338.0" y="860.0"/>
      <point x="428.0" y="1014.0"/>
    </contour>
    <contour>
      <point x="572.0" y="0.0" type="line"/>
      <point x="690.0" y="0.0" type="line"/>
      <point x="690.0" y="1414.0" type="line"/>
      <point x="572.0" y="1414.0" type="line"/>
    </contour>
  </outline>
</glyph>
